<svg xmlns="http://www.w3.org/2000/svg" xmlns:xlink="http://www.w3.org/1999/xlink" width="500" zoomAndPan="magnify" viewBox="0 0 375 374.999991" height="500" preserveAspectRatio="xMidYMid meet" version="1.2"><defs><clipPath id="fec166c318"><path d="M 53.640625 51 L 57 51 L 57 73 L 53.640625 73 Z M 53.640625 51 "/></clipPath><clipPath id="2716658959"><path d="M 56.714844 52.300781 C 56.714844 51.761719 55.984375 51.613281 55.769531 52.105469 C 54.394531 55.160156 53.640625 58.558594 53.640625 62.125 C 53.640625 65.695312 54.394531 69.09375 55.769531 72.144531 C 55.984375 72.640625 56.714844 72.46875 56.714844 71.953125 Z M 56.714844 52.300781 "/></clipPath><linearGradient x1="-0.0000113258" gradientTransform="matrix(0.215,0,0,0.215,53.641292,37.551939)" y1="114.286003" x2="14.299989" gradientUnits="userSpaceOnUse" y2="114.286003" id="3a3a9764a0"><stop style="stop-color:#5990ff;stop-opacity:1;" offset="0"/><stop style="stop-color:#5990ff;stop-opacity:1;" offset="0.015625"/><stop style="stop-color:#5a91ff;stop-opacity:1;" offset="0.03125"/><stop style="stop-color:#5a91ff;stop-opacity:1;" offset="0.046875"/><stop style="stop-color:#5b91ff;stop-opacity:1;" offset="0.0625"/><stop style="stop-color:#5b92ff;stop-opacity:1;" offset="0.078125"/><stop style="stop-color:#5c92ff;stop-opacity:1;" offset="0.09375"/><stop style="stop-color:#5c92ff;stop-opacity:1;" offset="0.109375"/><stop style="stop-color:#5d93ff;stop-opacity:1;" offset="0.125"/><stop style="stop-color:#5d93ff;stop-opacity:1;" offset="0.140625"/><stop style="stop-color:#5e93ff;stop-opacity:1;" offset="0.15625"/><stop style="stop-color:#5e94ff;stop-opacity:1;" offset="0.171875"/><stop style="stop-color:#5f94ff;stop-opacity:1;" offset="0.1875"/><stop style="stop-color:#5f94ff;stop-opacity:1;" offset="0.203125"/><stop style="stop-color:#6095ff;stop-opacity:1;" offset="0.21875"/><stop style="stop-color:#6095ff;stop-opacity:1;" offset="0.234375"/><stop style="stop-color:#6195ff;stop-opacity:1;" offset="0.25"/><stop style="stop-color:#6196ff;stop-opacity:1;" offset="0.265625"/><stop style="stop-color:#6296ff;stop-opacity:1;" offset="0.28125"/><stop style="stop-color:#6396ff;stop-opacity:1;" offset="0.296875"/><stop style="stop-color:#6397ff;stop-opacity:1;" offset="0.3125"/><stop style="stop-color:#6497ff;stop-opacity:1;" offset="0.328125"/><stop style="stop-color:#6497ff;stop-opacity:1;" offset="0.34375"/><stop style="stop-color:#6598ff;stop-opacity:1;" offset="0.359375"/><stop style="stop-color:#6598ff;stop-opacity:1;" offset="0.375"/><stop style="stop-color:#6698ff;stop-opacity:1;" offset="0.390625"/><stop style="stop-color:#6699ff;stop-opacity:1;" offset="0.40625"/><stop style="stop-color:#6799ff;stop-opacity:1;" offset="0.421875"/><stop style="stop-color:#679aff;stop-opacity:1;" offset="0.4375"/><stop style="stop-color:#689aff;stop-opacity:1;" offset="0.453125"/><stop style="stop-color:#689aff;stop-opacity:1;" offset="0.46875"/><stop style="stop-color:#699bff;stop-opacity:1;" offset="0.484375"/><stop style="stop-color:#699bff;stop-opacity:1;" offset="0.5"/><stop style="stop-color:#6a9bff;stop-opacity:1;" offset="0.515625"/><stop style="stop-color:#6a9cff;stop-opacity:1;" offset="0.53125"/><stop style="stop-color:#6b9cff;stop-opacity:1;" offset="0.546875"/><stop style="stop-color:#6b9cff;stop-opacity:1;" offset="0.5625"/><stop style="stop-color:#6c9dff;stop-opacity:1;" offset="0.578125"/><stop style="stop-color:#6c9dff;stop-opacity:1;" offset="0.59375"/><stop style="stop-color:#6d9dff;stop-opacity:1;" offset="0.609375"/><stop style="stop-color:#6d9eff;stop-opacity:1;" offset="0.625"/><stop style="stop-color:#6e9eff;stop-opacity:1;" offset="0.640625"/><stop style="stop-color:#6e9eff;stop-opacity:1;" offset="0.65625"/><stop style="stop-color:#6f9fff;stop-opacity:1;" offset="0.671875"/><stop style="stop-color:#6f9fff;stop-opacity:1;" offset="0.6875"/><stop style="stop-color:#709fff;stop-opacity:1;" offset="0.703125"/><stop style="stop-color:#70a0ff;stop-opacity:1;" offset="0.71875"/><stop style="stop-color:#71a0ff;stop-opacity:1;" offset="0.734375"/><stop style="stop-color:#71a0ff;stop-opacity:1;" offset="0.75"/><stop style="stop-color:#72a1ff;stop-opacity:1;" offset="0.765625"/><stop style="stop-color:#72a1ff;stop-opacity:1;" offset="0.78125"/><stop style="stop-color:#73a1ff;stop-opacity:1;" offset="0.796875"/><stop style="stop-color:#74a2ff;stop-opacity:1;" offset="0.8125"/><stop style="stop-color:#74a2ff;stop-opacity:1;" offset="0.828125"/><stop style="stop-color:#75a2ff;stop-opacity:1;" offset="0.84375"/><stop style="stop-color:#75a3ff;stop-opacity:1;" offset="0.859375"/><stop style="stop-color:#76a3ff;stop-opacity:1;" offset="0.875"/><stop style="stop-color:#76a3ff;stop-opacity:1;" offset="0.890625"/><stop style="stop-color:#77a4ff;stop-opacity:1;" offset="0.90625"/><stop style="stop-color:#77a4ff;stop-opacity:1;" offset="0.921875"/><stop style="stop-color:#78a4ff;stop-opacity:1;" offset="0.9375"/><stop style="stop-color:#78a5ff;stop-opacity:1;" offset="0.953125"/><stop style="stop-color:#79a5ff;stop-opacity:1;" offset="0.96875"/><stop style="stop-color:#79a6ff;stop-opacity:1;" offset="1"/></linearGradient><clipPath id="baa496a200"><path d="M 58 46 L 65 46 L 65 78 L 58 78 Z M 58 46 "/></clipPath><clipPath id="5b86fbca0a"><path d="M 64.390625 47.226562 C 64.390625 46.753906 63.8125 46.558594 63.511719 46.925781 C 60.21875 51.097656 58.242188 56.386719 58.242188 62.125 C 58.242188 67.867188 60.199219 73.132812 63.511719 77.328125 C 63.789062 77.691406 64.390625 77.5 64.390625 77.027344 Z M 64.390625 47.226562 "/></clipPath><linearGradient x1="21.39999" gradientTransform="matrix(0.215,0,0,0.215,53.641292,37.551939)" y1="114.286003" x2="49.999988" gradientUnits="userSpaceOnUse" y2="114.286003" id="3ba7067011"><stop style="stop-color:#7aa6ff;stop-opacity:1;" offset="0"/><stop style="stop-color:#7aa6ff;stop-opacity:1;" offset="0.015625"/><stop style="stop-color:#7ba7ff;stop-opacity:1;" offset="0.03125"/><stop style="stop-color:#7ba7ff;stop-opacity:1;" offset="0.046875"/><stop style="stop-color:#7ca7ff;stop-opacity:1;" offset="0.0625"/><stop style="stop-color:#7ca8ff;stop-opacity:1;" offset="0.078125"/><stop style="stop-color:#7da8ff;stop-opacity:1;" offset="0.09375"/><stop style="stop-color:#7da8ff;stop-opacity:1;" offset="0.109375"/><stop style="stop-color:#7ea9ff;stop-opacity:1;" offset="0.125"/><stop style="stop-color:#7ea9ff;stop-opacity:1;" offset="0.140625"/><stop style="stop-color:#7fa9ff;stop-opacity:1;" offset="0.15625"/><stop style="stop-color:#7faaff;stop-opacity:1;" offset="0.171875"/><stop style="stop-color:#80aaff;stop-opacity:1;" offset="0.1875"/><stop style="stop-color:#81aaff;stop-opacity:1;" offset="0.203125"/><stop style="stop-color:#81abff;stop-opacity:1;" offset="0.21875"/><stop style="stop-color:#82abff;stop-opacity:1;" offset="0.234375"/><stop style="stop-color:#82acff;stop-opacity:1;" offset="0.25"/><stop style="stop-color:#83acff;stop-opacity:1;" offset="0.265625"/><stop style="stop-color:#83acff;stop-opacity:1;" offset="0.28125"/><stop style="stop-color:#84adff;stop-opacity:1;" offset="0.296875"/><stop style="stop-color:#84adff;stop-opacity:1;" offset="0.3125"/><stop style="stop-color:#85adff;stop-opacity:1;" offset="0.328125"/><stop style="stop-color:#85aeff;stop-opacity:1;" offset="0.34375"/><stop style="stop-color:#86aeff;stop-opacity:1;" offset="0.359375"/><stop style="stop-color:#86aeff;stop-opacity:1;" offset="0.375"/><stop style="stop-color:#87afff;stop-opacity:1;" offset="0.390625"/><stop style="stop-color:#87afff;stop-opacity:1;" offset="0.40625"/><stop style="stop-color:#88afff;stop-opacity:1;" offset="0.421875"/><stop style="stop-color:#89b0ff;stop-opacity:1;" offset="0.4375"/><stop style="stop-color:#89b0ff;stop-opacity:1;" offset="0.453125"/><stop style="stop-color:#8ab1ff;stop-opacity:1;" offset="0.46875"/><stop style="stop-color:#8ab1ff;stop-opacity:1;" offset="0.484375"/><stop style="stop-color:#8bb1ff;stop-opacity:1;" offset="0.5"/><stop style="stop-color:#8bb2ff;stop-opacity:1;" offset="0.515625"/><stop style="stop-color:#8cb2ff;stop-opacity:1;" offset="0.53125"/><stop style="stop-color:#8cb2ff;stop-opacity:1;" offset="0.546875"/><stop style="stop-color:#8db3ff;stop-opacity:1;" offset="0.5625"/><stop style="stop-color:#8db3ff;stop-opacity:1;" offset="0.578125"/><stop style="stop-color:#8eb3ff;stop-opacity:1;" offset="0.59375"/><stop style="stop-color:#8eb4ff;stop-opacity:1;" offset="0.609375"/><stop style="stop-color:#8fb4ff;stop-opacity:1;" offset="0.625"/><stop style="stop-color:#90b5ff;stop-opacity:1;" offset="0.640625"/><stop style="stop-color:#90b5ff;stop-opacity:1;" offset="0.65625"/><stop style="stop-color:#91b5ff;stop-opacity:1;" offset="0.671875"/><stop style="stop-color:#91b6ff;stop-opacity:1;" offset="0.6875"/><stop style="stop-color:#92b6ff;stop-opacity:1;" offset="0.703125"/><stop style="stop-color:#92b6ff;stop-opacity:1;" offset="0.71875"/><stop style="stop-color:#93b7ff;stop-opacity:1;" offset="0.734375"/><stop style="stop-color:#93b7ff;stop-opacity:1;" offset="0.75"/><stop style="stop-color:#94b7ff;stop-opacity:1;" offset="0.765625"/><stop style="stop-color:#94b8ff;stop-opacity:1;" offset="0.78125"/><stop style="stop-color:#95b8ff;stop-opacity:1;" offset="0.796875"/><stop style="stop-color:#95b8ff;stop-opacity:1;" offset="0.8125"/><stop style="stop-color:#96b9ff;stop-opacity:1;" offset="0.828125"/><stop style="stop-color:#96b9ff;stop-opacity:1;" offset="0.84375"/><stop style="stop-color:#97baff;stop-opacity:1;" offset="0.859375"/><stop style="stop-color:#98baff;stop-opacity:1;" offset="0.875"/><stop style="stop-color:#98baff;stop-opacity:1;" offset="0.890625"/><stop style="stop-color:#99bbff;stop-opacity:1;" offset="0.90625"/><stop style="stop-color:#99bbff;stop-opacity:1;" offset="0.921875"/><stop style="stop-color:#9abbff;stop-opacity:1;" offset="0.9375"/><stop style="stop-color:#9abcff;stop-opacity:1;" offset="0.953125"/><stop style="stop-color:#9bbcff;stop-opacity:1;" offset="0.96875"/><stop style="stop-color:#9bbcff;stop-opacity:1;" offset="0.984375"/><stop style="stop-color:#9cbdff;stop-opacity:1;" offset="1"/></linearGradient><clipPath id="72b4189f1e"><path d="M 62 41 L 76 41 L 76 84 L 62 84 Z M 62 41 "/></clipPath><clipPath id="fc3dc65c97"><path d="M 75.140625 82.53125 L 75.140625 41.703125 C 75.140625 41.3125 74.710938 41.078125 74.390625 41.292969 C 67.464844 45.636719 62.863281 53.332031 62.863281 62.125 C 62.863281 70.921875 67.464844 78.617188 74.390625 82.960938 C 74.710938 83.152344 75.140625 82.917969 75.140625 82.53125 Z M 75.140625 82.53125 "/></clipPath><linearGradient x1="42.89999" gradientTransform="matrix(0.215,0,0,0.215,53.641292,37.551939)" y1="114.286003" x2="99.999987" gradientUnits="userSpaceOnUse" y2="114.286003" id="572b00d73c"><stop style="stop-color:#9cbdff;stop-opacity:1;" offset="0"/><stop style="stop-color:#9cbdff;stop-opacity:1;" offset="0.015625"/><stop style="stop-color:#9dbdff;stop-opacity:1;" offset="0.03125"/><stop style="stop-color:#9dbeff;stop-opacity:1;" offset="0.046875"/><stop style="stop-color:#9ebeff;stop-opacity:1;" offset="0.0625"/><stop style="stop-color:#9ebfff;stop-opacity:1;" offset="0.078125"/><stop style="stop-color:#9fbfff;stop-opacity:1;" offset="0.09375"/><stop style="stop-color:#9fbfff;stop-opacity:1;" offset="0.109375"/><stop style="stop-color:#a0c0ff;stop-opacity:1;" offset="0.125"/><stop style="stop-color:#a0c0ff;stop-opacity:1;" offset="0.140625"/><stop style="stop-color:#a1c0ff;stop-opacity:1;" offset="0.15625"/><stop style="stop-color:#a1c1ff;stop-opacity:1;" offset="0.171875"/><stop style="stop-color:#a2c1ff;stop-opacity:1;" offset="0.1875"/><stop style="stop-color:#a3c1ff;stop-opacity:1;" offset="0.203125"/><stop style="stop-color:#a3c2ff;stop-opacity:1;" offset="0.21875"/><stop style="stop-color:#a4c2ff;stop-opacity:1;" offset="0.234375"/><stop style="stop-color:#a4c2ff;stop-opacity:1;" offset="0.25"/><stop style="stop-color:#a5c3ff;stop-opacity:1;" offset="0.265625"/><stop style="stop-color:#a5c3ff;stop-opacity:1;" offset="0.28125"/><stop style="stop-color:#a6c3ff;stop-opacity:1;" offset="0.296875"/><stop style="stop-color:#a6c4ff;stop-opacity:1;" offset="0.3125"/><stop style="stop-color:#a7c4ff;stop-opacity:1;" offset="0.328125"/><stop style="stop-color:#a7c4ff;stop-opacity:1;" offset="0.34375"/><stop style="stop-color:#a8c5ff;stop-opacity:1;" offset="0.359375"/><stop style="stop-color:#a8c5ff;stop-opacity:1;" offset="0.375"/><stop style="stop-color:#a9c5ff;stop-opacity:1;" offset="0.390625"/><stop style="stop-color:#a9c6ff;stop-opacity:1;" offset="0.40625"/><stop style="stop-color:#aac6ff;stop-opacity:1;" offset="0.421875"/><stop style="stop-color:#aac6ff;stop-opacity:1;" offset="0.4375"/><stop style="stop-color:#abc7ff;stop-opacity:1;" offset="0.453125"/><stop style="stop-color:#abc7ff;stop-opacity:1;" offset="0.46875"/><stop style="stop-color:#acc7ff;stop-opacity:1;" offset="0.484375"/><stop style="stop-color:#acc8ff;stop-opacity:1;" offset="0.5"/><stop style="stop-color:#adc8ff;stop-opacity:1;" offset="0.515625"/><stop style="stop-color:#adc8ff;stop-opacity:1;" offset="0.53125"/><stop style="stop-color:#aec9ff;stop-opacity:1;" offset="0.546875"/><stop style="stop-color:#aec9ff;stop-opacity:1;" offset="0.5625"/><stop style="stop-color:#afc9ff;stop-opacity:1;" offset="0.578125"/><stop style="stop-color:#afcaff;stop-opacity:1;" offset="0.59375"/><stop style="stop-color:#b0caff;stop-opacity:1;" offset="0.609375"/><stop style="stop-color:#b0caff;stop-opacity:1;" offset="0.625"/><stop style="stop-color:#b1cbff;stop-opacity:1;" offset="0.640625"/><stop style="stop-color:#b1cbff;stop-opacity:1;" offset="0.65625"/><stop style="stop-color:#b2ccff;stop-opacity:1;" offset="0.671875"/><stop style="stop-color:#b2ccff;stop-opacity:1;" offset="0.6875"/><stop style="stop-color:#b3ccff;stop-opacity:1;" offset="0.703125"/><stop style="stop-color:#b3cdff;stop-opacity:1;" offset="0.71875"/><stop style="stop-color:#b4cdff;stop-opacity:1;" offset="0.734375"/><stop style="stop-color:#b4cdff;stop-opacity:1;" offset="0.75"/><stop style="stop-color:#b5ceff;stop-opacity:1;" offset="0.765625"/><stop style="stop-color:#b6ceff;stop-opacity:1;" offset="0.78125"/><stop style="stop-color:#b6ceff;stop-opacity:1;" offset="0.796875"/><stop style="stop-color:#b7cfff;stop-opacity:1;" offset="0.8125"/><stop style="stop-color:#b7cfff;stop-opacity:1;" offset="0.828125"/><stop style="stop-color:#b8cfff;stop-opacity:1;" offset="0.84375"/><stop style="stop-color:#b8d0ff;stop-opacity:1;" offset="0.859375"/><stop style="stop-color:#b9d0ff;stop-opacity:1;" offset="0.875"/><stop style="stop-color:#b9d0ff;stop-opacity:1;" offset="0.890625"/><stop style="stop-color:#bad1ff;stop-opacity:1;" offset="0.90625"/><stop style="stop-color:#bad1ff;stop-opacity:1;" offset="0.921875"/><stop style="stop-color:#bbd1ff;stop-opacity:1;" offset="0.9375"/><stop style="stop-color:#bbd2ff;stop-opacity:1;" offset="0.953125"/><stop style="stop-color:#bcd2ff;stop-opacity:1;" offset="0.96875"/><stop style="stop-color:#bcd2ff;stop-opacity:1;" offset="0.984375"/><stop style="stop-color:#bdd3ff;stop-opacity:1;" offset="1"/></linearGradient><clipPath id="0eeab2c498"><path d="M 68 37.5 L 118.140625 37.5 L 118.140625 87 L 68 87 Z M 68 37.5 "/></clipPath><clipPath id="4063710061"><path d="M 118.140625 62.125 C 118.140625 62.929688 118.101562 63.734375 118.023438 64.535156 C 117.945312 65.335938 117.824219 66.132812 117.667969 66.921875 C 117.511719 67.710938 117.316406 68.488281 117.082031 69.261719 C 116.847656 70.03125 116.578125 70.785156 116.269531 71.53125 C 115.960938 72.273438 115.617188 73 115.238281 73.710938 C 114.859375 74.421875 114.445312 75.109375 114 75.777344 C 113.550781 76.449219 113.074219 77.09375 112.5625 77.714844 C 112.050781 78.339844 111.511719 78.933594 110.945312 79.503906 C 110.375 80.074219 109.777344 80.613281 109.15625 81.121094 C 108.535156 81.632812 107.890625 82.113281 107.21875 82.558594 C 106.550781 83.007812 105.859375 83.417969 105.152344 83.800781 C 104.441406 84.179688 103.714844 84.523438 102.972656 84.832031 C 102.226562 85.136719 101.46875 85.410156 100.699219 85.644531 C 99.929688 85.875 99.152344 86.070312 98.359375 86.230469 C 97.570312 86.386719 96.777344 86.503906 95.976562 86.582031 C 95.175781 86.660156 94.371094 86.699219 93.566406 86.699219 C 92.761719 86.699219 91.960938 86.660156 91.15625 86.582031 C 90.355469 86.503906 89.5625 86.386719 88.773438 86.230469 C 87.984375 86.070312 87.203125 85.875 86.433594 85.644531 C 85.664062 85.410156 84.90625 85.136719 84.164062 84.832031 C 83.417969 84.523438 82.691406 84.179688 81.984375 83.800781 C 81.273438 83.417969 80.582031 83.007812 79.914062 82.558594 C 79.246094 82.113281 78.597656 81.632812 77.976562 81.121094 C 77.355469 80.613281 76.757812 80.074219 76.191406 79.503906 C 75.621094 78.933594 75.082031 78.339844 74.570312 77.714844 C 74.058594 77.09375 73.582031 76.449219 73.132812 75.777344 C 72.6875 75.109375 72.273438 74.421875 71.894531 73.710938 C 71.515625 73 71.171875 72.273438 70.863281 71.53125 C 70.554688 70.785156 70.285156 70.03125 70.050781 69.261719 C 69.816406 68.488281 69.621094 67.710938 69.464844 66.921875 C 69.308594 66.132812 69.191406 65.335938 69.109375 64.535156 C 69.03125 63.734375 68.992188 62.929688 68.992188 62.125 C 68.992188 61.320312 69.03125 60.519531 69.109375 59.71875 C 69.191406 58.917969 69.308594 58.121094 69.464844 57.332031 C 69.621094 56.542969 69.816406 55.761719 70.050781 54.992188 C 70.285156 54.222656 70.554688 53.464844 70.863281 52.722656 C 71.171875 51.980469 71.515625 51.25 71.894531 50.542969 C 72.273438 49.832031 72.6875 49.144531 73.132812 48.472656 C 73.582031 47.804688 74.058594 47.160156 74.570312 46.535156 C 75.082031 45.914062 75.621094 45.320312 76.191406 44.75 C 76.757812 44.179688 77.355469 43.640625 77.976562 43.128906 C 78.597656 42.621094 79.246094 42.140625 79.914062 41.695312 C 80.582031 41.246094 81.273438 40.832031 81.984375 40.453125 C 82.691406 40.074219 83.417969 39.730469 84.164062 39.421875 C 84.90625 39.113281 85.664062 38.84375 86.433594 38.609375 C 87.203125 38.375 87.984375 38.179688 88.773438 38.023438 C 89.5625 37.867188 90.355469 37.75 91.15625 37.671875 C 91.960938 37.589844 92.761719 37.550781 93.566406 37.550781 C 94.371094 37.550781 95.175781 37.589844 95.976562 37.671875 C 96.777344 37.75 97.570312 37.867188 98.359375 38.023438 C 99.152344 38.179688 99.929688 38.375 100.699219 38.609375 C 101.46875 38.84375 102.226562 39.113281 102.972656 39.421875 C 103.714844 39.730469 104.441406 40.074219 105.152344 40.453125 C 105.859375 40.832031 106.550781 41.246094 107.21875 41.695312 C 107.890625 42.140625 108.535156 42.621094 109.15625 43.128906 C 109.777344 43.640625 110.375 44.179688 110.945312 44.75 C 111.511719 45.320312 112.050781 45.914062 112.5625 46.535156 C 113.074219 47.160156 113.550781 47.804688 114 48.472656 C 114.445312 49.144531 114.859375 49.832031 115.238281 50.542969 C 115.617188 51.25 115.960938 51.980469 116.269531 52.722656 C 116.578125 53.464844 116.847656 54.222656 117.082031 54.992188 C 117.316406 55.761719 117.511719 56.542969 117.667969 57.332031 C 117.824219 58.121094 117.945312 58.917969 118.023438 59.71875 C 118.101562 60.519531 118.140625 61.320312 118.140625 62.125 Z M 118.140625 62.125 "/></clipPath><linearGradient x1="71.399981" gradientTransform="matrix(0.215,0,0,0.215,53.641292,37.551939)" y1="114.286003" x2="299.99999" gradientUnits="userSpaceOnUse" y2="114.286003" id="ce5b9cd42e"><stop style="stop-color:#bdd3ff;stop-opacity:1;" offset="0"/><stop style="stop-color:#bdd3ff;stop-opacity:1;" offset="0.0078125"/><stop style="stop-color:#bed3ff;stop-opacity:1;" offset="0.015625"/><stop style="stop-color:#bed4ff;stop-opacity:1;" offset="0.0234375"/><stop style="stop-color:#bfd4ff;stop-opacity:1;" offset="0.03125"/><stop style="stop-color:#bfd4ff;stop-opacity:1;" offset="0.0390625"/><stop style="stop-color:#c0d5ff;stop-opacity:1;" offset="0.046875"/><stop style="stop-color:#c0d5ff;stop-opacity:1;" offset="0.0546875"/><stop style="stop-color:#c1d5ff;stop-opacity:1;" offset="0.0625"/><stop style="stop-color:#c1d6ff;stop-opacity:1;" offset="0.0703125"/><stop style="stop-color:#c2d6ff;stop-opacity:1;" offset="0.078125"/><stop style="stop-color:#c2d6ff;stop-opacity:1;" offset="0.0859375"/><stop style="stop-color:#c3d7ff;stop-opacity:1;" offset="0.09375"/><stop style="stop-color:#c3d7ff;stop-opacity:1;" offset="0.101562"/><stop style="stop-color:#c4d8ff;stop-opacity:1;" offset="0.109375"/><stop style="stop-color:#c4d8ff;stop-opacity:1;" offset="0.117188"/><stop style="stop-color:#c5d8ff;stop-opacity:1;" offset="0.125"/><stop style="stop-color:#c5d9ff;stop-opacity:1;" offset="0.132812"/><stop style="stop-color:#c6d9ff;stop-opacity:1;" offset="0.140625"/><stop style="stop-color:#c6d9ff;stop-opacity:1;" offset="0.148437"/><stop style="stop-color:#c7daff;stop-opacity:1;" offset="0.15625"/><stop style="stop-color:#c8daff;stop-opacity:1;" offset="0.164062"/><stop style="stop-color:#c8daff;stop-opacity:1;" offset="0.171875"/><stop style="stop-color:#c9dbff;stop-opacity:1;" offset="0.179688"/><stop style="stop-color:#c9dbff;stop-opacity:1;" offset="0.1875"/><stop style="stop-color:#cadbff;stop-opacity:1;" offset="0.195312"/><stop style="stop-color:#cadcff;stop-opacity:1;" offset="0.203125"/><stop style="stop-color:#cbdcff;stop-opacity:1;" offset="0.210937"/><stop style="stop-color:#cbdcff;stop-opacity:1;" offset="0.21875"/><stop style="stop-color:#ccddff;stop-opacity:1;" offset="0.226562"/><stop style="stop-color:#ccddff;stop-opacity:1;" offset="0.234375"/><stop style="stop-color:#cdddff;stop-opacity:1;" offset="0.242188"/><stop style="stop-color:#cddeff;stop-opacity:1;" offset="0.25"/><stop style="stop-color:#cedeff;stop-opacity:1;" offset="0.257812"/><stop style="stop-color:#cedeff;stop-opacity:1;" offset="0.265625"/><stop style="stop-color:#cfdfff;stop-opacity:1;" offset="0.273437"/><stop style="stop-color:#cfdfff;stop-opacity:1;" offset="0.28125"/><stop style="stop-color:#d0dfff;stop-opacity:1;" offset="0.289062"/><stop style="stop-color:#d0e0ff;stop-opacity:1;" offset="0.296875"/><stop style="stop-color:#d1e0ff;stop-opacity:1;" offset="0.304687"/><stop style="stop-color:#d1e0ff;stop-opacity:1;" offset="0.3125"/><stop style="stop-color:#d2e1ff;stop-opacity:1;" offset="0.320312"/><stop style="stop-color:#d2e1ff;stop-opacity:1;" offset="0.328125"/><stop style="stop-color:#d3e2ff;stop-opacity:1;" offset="0.335937"/><stop style="stop-color:#d3e2ff;stop-opacity:1;" offset="0.34375"/><stop style="stop-color:#d4e2ff;stop-opacity:1;" offset="0.351562"/><stop style="stop-color:#d4e3ff;stop-opacity:1;" offset="0.359375"/><stop style="stop-color:#d5e3ff;stop-opacity:1;" offset="0.367187"/><stop style="stop-color:#d5e3ff;stop-opacity:1;" offset="0.375"/><stop style="stop-color:#d6e4ff;stop-opacity:1;" offset="0.382812"/><stop style="stop-color:#d6e4ff;stop-opacity:1;" offset="0.390625"/><stop style="stop-color:#d7e4ff;stop-opacity:1;" offset="0.398437"/><stop style="stop-color:#d8e5ff;stop-opacity:1;" offset="0.40625"/><stop style="stop-color:#d8e5ff;stop-opacity:1;" offset="0.414062"/><stop style="stop-color:#d9e5ff;stop-opacity:1;" offset="0.421875"/><stop style="stop-color:#d9e6ff;stop-opacity:1;" offset="0.429687"/><stop style="stop-color:#dae6ff;stop-opacity:1;" offset="0.4375"/><stop style="stop-color:#dae6ff;stop-opacity:1;" offset="0.445312"/><stop style="stop-color:#dbe7ff;stop-opacity:1;" offset="0.453125"/><stop style="stop-color:#dbe7ff;stop-opacity:1;" offset="0.460937"/><stop style="stop-color:#dce7ff;stop-opacity:1;" offset="0.46875"/><stop style="stop-color:#dce8ff;stop-opacity:1;" offset="0.476562"/><stop style="stop-color:#dde8ff;stop-opacity:1;" offset="0.484375"/><stop style="stop-color:#dde8ff;stop-opacity:1;" offset="0.492187"/><stop style="stop-color:#dee9ff;stop-opacity:1;" offset="0.5"/><stop style="stop-color:#dee9ff;stop-opacity:1;" offset="0.507812"/><stop style="stop-color:#dfe9ff;stop-opacity:1;" offset="0.515625"/><stop style="stop-color:#dfeaff;stop-opacity:1;" offset="0.523437"/><stop style="stop-color:#e0eaff;stop-opacity:1;" offset="0.53125"/><stop style="stop-color:#e0eaff;stop-opacity:1;" offset="0.539062"/><stop style="stop-color:#e1ebff;stop-opacity:1;" offset="0.546875"/><stop style="stop-color:#e1ebff;stop-opacity:1;" offset="0.554687"/><stop style="stop-color:#e2ecff;stop-opacity:1;" offset="0.5625"/><stop style="stop-color:#e2ecff;stop-opacity:1;" offset="0.570312"/><stop style="stop-color:#e3ecff;stop-opacity:1;" offset="0.578125"/><stop style="stop-color:#e3edff;stop-opacity:1;" offset="0.585937"/><stop style="stop-color:#e4edff;stop-opacity:1;" offset="0.59375"/><stop style="stop-color:#e4edff;stop-opacity:1;" offset="0.601562"/><stop style="stop-color:#e5eeff;stop-opacity:1;" offset="0.609375"/><stop style="stop-color:#e5eeff;stop-opacity:1;" offset="0.617187"/><stop style="stop-color:#e6eeff;stop-opacity:1;" offset="0.625"/><stop style="stop-color:#e6efff;stop-opacity:1;" offset="0.632812"/><stop style="stop-color:#e7efff;stop-opacity:1;" offset="0.640625"/><stop style="stop-color:#e8efff;stop-opacity:1;" offset="0.648437"/><stop style="stop-color:#e8f0ff;stop-opacity:1;" offset="0.65625"/><stop style="stop-color:#e9f0ff;stop-opacity:1;" offset="0.664062"/><stop style="stop-color:#e9f0ff;stop-opacity:1;" offset="0.671875"/><stop style="stop-color:#eaf1ff;stop-opacity:1;" offset="0.679687"/><stop style="stop-color:#eaf1ff;stop-opacity:1;" offset="0.6875"/><stop style="stop-color:#ebf1ff;stop-opacity:1;" offset="0.695312"/><stop style="stop-color:#ebf2ff;stop-opacity:1;" offset="0.703125"/><stop style="stop-color:#ecf2ff;stop-opacity:1;" offset="0.710937"/><stop style="stop-color:#ecf2ff;stop-opacity:1;" offset="0.71875"/><stop style="stop-color:#edf3ff;stop-opacity:1;" offset="0.726562"/><stop style="stop-color:#edf3ff;stop-opacity:1;" offset="0.734375"/><stop style="stop-color:#eef3ff;stop-opacity:1;" offset="0.742187"/><stop style="stop-color:#eef4ff;stop-opacity:1;" offset="0.75"/><stop style="stop-color:#eff4ff;stop-opacity:1;" offset="0.757812"/><stop style="stop-color:#eff4ff;stop-opacity:1;" offset="0.765625"/><stop style="stop-color:#f0f5ff;stop-opacity:1;" offset="0.773437"/><stop style="stop-color:#f0f5ff;stop-opacity:1;" offset="0.78125"/><stop style="stop-color:#f1f6ff;stop-opacity:1;" offset="0.789062"/><stop style="stop-color:#f1f6ff;stop-opacity:1;" offset="0.796875"/><stop style="stop-color:#f2f6ff;stop-opacity:1;" offset="0.804687"/><stop style="stop-color:#f2f7ff;stop-opacity:1;" offset="0.8125"/><stop style="stop-color:#f3f7ff;stop-opacity:1;" offset="0.820312"/><stop style="stop-color:#f3f7ff;stop-opacity:1;" offset="0.828125"/><stop style="stop-color:#f4f8ff;stop-opacity:1;" offset="0.835937"/><stop style="stop-color:#f4f8ff;stop-opacity:1;" offset="0.84375"/><stop style="stop-color:#f5f8ff;stop-opacity:1;" offset="0.851562"/><stop style="stop-color:#f5f9ff;stop-opacity:1;" offset="0.859375"/><stop style="stop-color:#f6f9ff;stop-opacity:1;" offset="0.867187"/><stop style="stop-color:#f6f9ff;stop-opacity:1;" offset="0.875"/><stop style="stop-color:#f7faff;stop-opacity:1;" offset="0.882812"/><stop style="stop-color:#f8faff;stop-opacity:1;" offset="0.890625"/><stop style="stop-color:#f8faff;stop-opacity:1;" offset="0.898437"/><stop style="stop-color:#f9fbff;stop-opacity:1;" offset="0.90625"/><stop style="stop-color:#f9fbff;stop-opacity:1;" offset="0.914062"/><stop style="stop-color:#fafbff;stop-opacity:1;" offset="0.921875"/><stop style="stop-color:#fafcff;stop-opacity:1;" offset="0.929687"/><stop style="stop-color:#fbfcff;stop-opacity:1;" offset="0.9375"/><stop style="stop-color:#fbfcff;stop-opacity:1;" offset="0.945312"/><stop style="stop-color:#fcfdff;stop-opacity:1;" offset="0.953125"/><stop style="stop-color:#fcfdff;stop-opacity:1;" offset="0.960937"/><stop style="stop-color:#fdfdff;stop-opacity:1;" offset="0.96875"/><stop style="stop-color:#fdfeff;stop-opacity:1;" offset="0.976562"/><stop style="stop-color:#fefeff;stop-opacity:1;" offset="0.984375"/><stop style="stop-color:#fefeff;stop-opacity:1;" offset="0.992187"/><stop style="stop-color:#ffffff;stop-opacity:1;" offset="1"/></linearGradient></defs><g id="a9413ea752"><rect x="0" width="375" y="0" height="374.999991" style="fill:#ffffff;fill-opacity:1;stroke:none;"/><rect x="0" width="375" y="0" height="374.999991" style="fill:#1764ff;fill-opacity:1;stroke:none;"/><g clip-rule="nonzero" clip-path="url(#fec166c318)"><g clip-rule="nonzero" clip-path="url(#2716658959)"><path style=" stroke:none;fill-rule:nonzero;fill:url(#3a3a9764a0);" d="M 53.640625 51.613281 L 53.640625 72.640625 L 56.714844 72.640625 L 56.714844 51.613281 Z M 53.640625 51.613281 "/></g></g><g clip-rule="nonzero" clip-path="url(#baa496a200)"><g clip-rule="nonzero" clip-path="url(#5b86fbca0a)"><path style=" stroke:none;fill-rule:nonzero;fill:url(#3ba7067011);" d="M 58.242188 46.558594 L 58.242188 77.691406 L 64.390625 77.691406 L 64.390625 46.558594 Z M 58.242188 46.558594 "/></g></g><g clip-rule="nonzero" clip-path="url(#72b4189f1e)"><g clip-rule="nonzero" clip-path="url(#fc3dc65c97)"><path style=" stroke:none;fill-rule:nonzero;fill:url(#572b00d73c);" d="M 62.863281 41.078125 L 62.863281 83.152344 L 75.140625 83.152344 L 75.140625 41.078125 Z M 62.863281 41.078125 "/></g></g><g clip-rule="nonzero" clip-path="url(#0eeab2c498)"><g clip-rule="nonzero" clip-path="url(#4063710061)"><path style=" stroke:none;fill-rule:nonzero;fill:url(#ce5b9cd42e);" d="M 68.992188 37.550781 L 68.992188 86.699219 L 118.140625 86.699219 L 118.140625 37.550781 Z M 68.992188 37.550781 "/></g></g><g style="fill:#ffffff;fill-opacity:1;"><g transform="translate(130.031686, 75.490655)"><path style="stroke:none" d="M 1.265625 -7.078125 L 6.046875 -7.078125 C 6.109375 -5.941406 6.519531 -4.992188 7.28125 -4.234375 C 8.050781 -3.484375 9.289062 -3.109375 11 -3.109375 C 12.632812 -3.109375 13.765625 -3.363281 14.390625 -3.875 C 15.015625 -4.394531 15.328125 -5.085938 15.328125 -5.953125 C 15.328125 -7.503906 14.367188 -8.410156 12.453125 -8.671875 L 7.703125 -9.28125 C 5.804688 -9.519531 4.335938 -10.15625 3.296875 -11.1875 C 2.265625 -12.226562 1.75 -13.628906 1.75 -15.390625 C 1.75 -17.335938 2.484375 -18.9375 3.953125 -20.1875 C 5.429688 -21.4375 7.679688 -22.0625 10.703125 -22.0625 C 12.859375 -22.0625 14.601562 -21.75 15.9375 -21.125 C 17.28125 -20.5 18.28125 -19.660156 18.9375 -18.609375 C 19.59375 -17.566406 19.960938 -16.410156 20.046875 -15.140625 L 15.234375 -15.140625 C 15.109375 -16.148438 14.675781 -16.953125 13.9375 -17.546875 C 13.207031 -18.140625 12.128906 -18.4375 10.703125 -18.4375 C 9.390625 -18.4375 8.390625 -18.1875 7.703125 -17.6875 C 7.023438 -17.195312 6.6875 -16.53125 6.6875 -15.6875 C 6.6875 -15.0625 6.882812 -14.53125 7.28125 -14.09375 C 7.6875 -13.664062 8.332031 -13.398438 9.21875 -13.296875 L 13.71875 -12.75 C 18.09375 -12.25 20.28125 -10.144531 20.28125 -6.4375 C 20.28125 -5.03125 19.96875 -3.800781 19.34375 -2.75 C 18.71875 -1.695312 17.71875 -0.882812 16.34375 -0.3125 C 14.976562 0.257812 13.175781 0.546875 10.9375 0.546875 C 9.164062 0.546875 7.671875 0.335938 6.453125 -0.078125 C 5.234375 -0.503906 4.25 -1.078125 3.5 -1.796875 C 2.757812 -2.515625 2.210938 -3.332031 1.859375 -4.25 C 1.503906 -5.164062 1.304688 -6.109375 1.265625 -7.078125 Z M 1.265625 -7.078125 "/></g></g><g style="fill:#ffffff;fill-opacity:1;"><g transform="translate(151.639595, 75.490655)"><path style="stroke:none" d="M 16.390625 -21.515625 L 21.859375 -21.515625 L 13.78125 -6.5 L 13.78125 0 L 8.859375 0 L 8.859375 -6.5 L 0.75 -21.515625 L 6.25 -21.515625 L 9.765625 -14.03125 C 10.023438 -13.425781 10.285156 -12.832031 10.546875 -12.25 C 10.804688 -11.675781 11.039062 -11.085938 11.25 -10.484375 C 11.507812 -11.085938 11.769531 -11.675781 12.03125 -12.25 C 12.289062 -12.832031 12.5625 -13.425781 12.84375 -14.03125 Z M 16.390625 -21.515625 "/></g></g><g style="fill:#ffffff;fill-opacity:1;"><g transform="translate(174.217915, 75.490655)"><path style="stroke:none" d="M 12.71875 0.546875 C 10.6875 0.546875 8.957031 0.242188 7.53125 -0.359375 C 6.113281 -0.960938 4.957031 -1.785156 4.0625 -2.828125 C 3.164062 -3.878906 2.503906 -5.082031 2.078125 -6.4375 C 1.660156 -7.789062 1.453125 -9.222656 1.453125 -10.734375 C 1.453125 -12.222656 1.660156 -13.644531 2.078125 -15 C 2.503906 -16.363281 3.164062 -17.570312 4.0625 -18.625 C 4.957031 -19.6875 6.117188 -20.523438 7.546875 -21.140625 C 8.984375 -21.753906 10.71875 -22.0625 12.75 -22.0625 C 15.226562 -22.0625 17.238281 -21.71875 18.78125 -21.03125 C 20.320312 -20.351562 21.476562 -19.347656 22.25 -18.015625 C 23.03125 -16.679688 23.492188 -15.03125 23.640625 -13.0625 L 18.59375 -13.0625 C 18.445312 -14.65625 17.941406 -15.882812 17.078125 -16.75 C 16.210938 -17.613281 14.789062 -18.046875 12.8125 -18.046875 C 10.65625 -18.046875 9.078125 -17.429688 8.078125 -16.203125 C 7.085938 -14.972656 6.59375 -13.148438 6.59375 -10.734375 C 6.59375 -8.367188 7.0625 -6.570312 8 -5.34375 C 8.9375 -4.113281 10.484375 -3.5 12.640625 -3.5 C 14.710938 -3.5 16.203125 -3.941406 17.109375 -4.828125 C 18.015625 -5.722656 18.53125 -7.015625 18.65625 -8.703125 L 23.734375 -8.703125 C 23.585938 -6.628906 23.128906 -4.90625 22.359375 -3.53125 C 21.597656 -2.164062 20.4375 -1.144531 18.875 -0.46875 C 17.3125 0.207031 15.257812 0.546875 12.71875 0.546875 Z M 12.71875 0.546875 "/></g></g><g style="fill:#ffffff;fill-opacity:1;"><g transform="translate(199.254617, 75.490655)"><path style="stroke:none" d="M 17.984375 -21.515625 L 22.703125 -21.515625 L 22.703125 0 L 14.5625 0 L 7.828125 -14.6875 C 7.585938 -15.25 7.363281 -15.800781 7.15625 -16.34375 C 6.957031 -16.894531 6.769531 -17.441406 6.59375 -17.984375 L 6.59375 0 L 1.875 0 L 1.875 -21.515625 L 10.03125 -21.515625 L 16.8125 -6.59375 C 17.007812 -6.144531 17.207031 -5.65625 17.40625 -5.125 C 17.613281 -4.59375 17.804688 -4.050781 17.984375 -3.5 Z M 17.984375 -21.515625 "/></g></g><g style="fill:#ffffff;fill-opacity:1;"><g transform="translate(223.838456, 75.490655)"><path style="stroke:none" d="M 20.15625 -21.515625 L 20.15625 -17.625 L 13.0625 -17.625 L 13.0625 0 L 8.15625 0 L 8.15625 -17.625 L 1.0625 -17.625 L 1.0625 -21.515625 Z M 20.15625 -21.515625 "/></g></g><g style="fill:#ffffff;fill-opacity:1;"><g transform="translate(245.058201, 75.490655)"><path style="stroke:none" d="M 14.75 -17.625 L 10.765625 -17.625 L 10.765625 -3.90625 L 14.75 -3.90625 L 14.75 0 L 1.875 0 L 1.875 -3.90625 L 5.859375 -3.90625 L 5.859375 -17.625 L 1.875 -17.625 L 1.875 -21.515625 L 14.75 -21.515625 Z M 14.75 -17.625 "/></g></g><g style="fill:#ffffff;fill-opacity:1;"><g transform="translate(261.684646, 75.490655)"><path style="stroke:none" d="M 12.21875 -21.515625 C 13.96875 -21.515625 15.476562 -21.222656 16.75 -20.640625 C 18.019531 -20.054688 19.078125 -19.265625 19.921875 -18.265625 C 20.765625 -17.273438 21.382812 -16.140625 21.78125 -14.859375 C 22.175781 -13.578125 22.375 -12.222656 22.375 -10.796875 C 22.375 -9.378906 22.175781 -8.019531 21.78125 -6.71875 C 21.382812 -5.425781 20.765625 -4.273438 19.921875 -3.265625 C 19.078125 -2.253906 18.019531 -1.457031 16.75 -0.875 C 15.476562 -0.289062 13.96875 0 12.21875 0 L 1.875 0 L 1.875 -21.515625 Z M 11.125 -3.90625 C 13.320312 -3.90625 14.894531 -4.484375 15.84375 -5.640625 C 16.789062 -6.796875 17.265625 -8.515625 17.265625 -10.796875 C 17.265625 -13.109375 16.785156 -14.820312 15.828125 -15.9375 C 14.867188 -17.0625 13.300781 -17.625 11.125 -17.625 L 6.796875 -17.625 L 6.796875 -3.90625 Z M 11.125 -3.90625 "/></g></g><g style="fill:#ffffff;fill-opacity:1;"><g transform="translate(285.298075, 75.490655)"><path style="stroke:none" d="M 6.796875 -3.90625 L 18.859375 -3.90625 L 18.859375 0 L 1.875 0 L 1.875 -21.515625 L 18.765625 -21.515625 L 18.765625 -17.625 L 6.796875 -17.625 L 6.796875 -12.8125 L 17.796875 -12.8125 L 17.796875 -9.15625 L 6.796875 -9.15625 Z M 6.796875 -3.90625 "/></g></g></g></svg>