<svg xmlns="http://www.w3.org/2000/svg" xmlns:xlink="http://www.w3.org/1999/xlink" width="500" zoomAndPan="magnify" viewBox="0 0 375 374.999991" height="500" preserveAspectRatio="xMidYMid meet" version="1.2"><defs><clipPath id="7debd031aa"><path d="M 49.5 37.5 L 325.488281 37.5 L 325.488281 126.726562 L 49.5 126.726562 Z M 49.5 37.5 "/></clipPath><clipPath id="1e38398c91"><path d="M 100.117188 40 L 295 40 L 295 124 L 100.117188 124 Z M 100.117188 40 "/></clipPath></defs><g id="99b3617e89"><rect x="0" width="375" y="0" height="374.999991" style="fill:#ffffff;fill-opacity:1;stroke:none;"/><rect x="0" width="375" y="0" height="374.999991" style="fill:#000000;fill-opacity:1;stroke:none;"/><g clip-rule="nonzero" clip-path="url(#7debd031aa)"><path style="fill:none;stroke-width:8;stroke-linecap:butt;stroke-linejoin:miter;stroke:#ffffff;stroke-opacity:1;stroke-miterlimit:4;" d="M -0.000337666 0.00000328333 L 367.984085 0.00000328333 L 367.984085 118.968769 L -0.000337666 118.968769 Z M -0.000337666 0.00000328333 " transform="matrix(0.75,0,0,0.75,49.500253,37.499998)"/></g><g clip-rule="nonzero" clip-path="url(#1e38398c91)"><path style=" stroke:none;fill-rule:nonzero;fill:#0097b2;fill-opacity:1;" d="M 108.695312 119.027344 C 110.402344 105.296875 115.265625 92.359375 124.960938 82.230469 C 134.65625 72.101562 148.945312 65.660156 163.597656 65.296875 C 170.726562 65.121094 177.6875 66.257812 184.34375 68.828125 C 192.222656 71.875 199.300781 76.597656 206.929688 80.175781 C 222.203125 87.332031 239.234375 88.191406 255.304688 83.34375 C 271.378906 78.496094 286.847656 66.851562 293.941406 51.609375 C 295.109375 49.101562 294.578125 45.140625 292.992188 42.90625 C 291.734375 41.125 288.960938 39.957031 287.234375 41.921875 C 282.226562 47.632812 277.804688 53.554688 271.832031 58.355469 C 266.191406 62.894531 259.710938 66.332031 252.851562 68.601562 C 236.390625 74.03125 219.074219 70.605469 204.128906 62.660156 C 196.859375 58.796875 189.773438 54.480469 181.808594 52.171875 C 174.5 50.054688 166.710938 49.210938 159.128906 49.945312 C 143.957031 51.421875 129.617188 58.371094 119.277344 69.601562 C 107.453125 82.457031 100.109375 99.96875 100.363281 117.523438 C 100.394531 119.871094 101.507812 123.316406 104.1875 123.757812 C 106.863281 124.199219 108.429688 121.269531 108.710938 119.035156 Z M 108.695312 119.027344 "/></g><g style="fill:#000000;fill-opacity:1;"><g transform="translate(58.624244, 103.608089)"><path style="stroke:none" d="M 33.410156 -36.109375 C 33.605469 -35.917969 33.773438 -35.683594 33.910156 -35.410156 L 34.078125 -35.070312 L 34.117188 -34.691406 C 34.199219 -33.863281 34.230469 -33.152344 34.207031 -32.5625 C 34.1875 -32.050781 34.160156 -31.484375 34.125 -30.863281 C 34.089844 -30.296875 34.070312 -29.429688 34.070312 -28.261719 C 34.070312 -27.878906 34.105469 -27.296875 34.175781 -26.511719 L 34.347656 -24.492188 L 34.347656 -24.402344 C 34.347656 -23.667969 34.105469 -23.058594 33.617188 -22.570312 C 33.132812 -22.085938 32.519531 -21.84375 31.785156 -21.84375 L 31.726562 -21.84375 C 30.457031 -21.878906 29.007812 -21.945312 27.371094 -22.039062 L 22.832031 -22.285156 C 21.457031 -22.355469 20.476562 -22.394531 19.886719 -22.394531 L 19.886719 -24.460938 L 19.941406 -22.394531 C 18.6875 -22.359375 17.609375 -22.261719 16.703125 -22.097656 C 16.585938 -22.074219 16.5 -22.050781 16.4375 -22.027344 C 16.453125 -22.035156 16.480469 -22.054688 16.523438 -22.089844 C 16.765625 -22.292969 16.882812 -22.546875 16.882812 -22.863281 C 16.882812 -22.804688 16.886719 -22.765625 16.890625 -22.738281 C 16.882812 -22.777344 16.867188 -22.824219 16.84375 -22.878906 C 16.703125 -23.183594 16.46875 -23.398438 16.132812 -23.523438 C 16.363281 -23.4375 16.542969 -23.386719 16.671875 -23.367188 L 16.734375 -23.363281 L 16.792969 -23.351562 C 17.601562 -23.199219 18.246094 -23.144531 18.722656 -23.183594 C 19.484375 -23.25 20.503906 -23.242188 21.777344 -23.160156 C 23.09375 -23.082031 24.390625 -22.902344 25.671875 -22.621094 C 27.179688 -22.292969 28.519531 -21.632812 29.699219 -20.640625 C 30.292969 -20.132812 30.925781 -19.503906 31.59375 -18.753906 C 32.390625 -17.863281 33.042969 -16.636719 33.554688 -15.078125 C 34.046875 -13.582031 34.292969 -11.550781 34.292969 -8.980469 C 34.292969 -8.300781 34.152344 -7.386719 33.875 -6.238281 C 33.582031 -5.011719 33.019531 -3.769531 32.191406 -2.503906 L 32.175781 -2.480469 L 32.164062 -2.460938 C 31.710938 -1.808594 31.035156 -1.132812 30.132812 -0.433594 C 29.203125 0.285156 28.167969 0.828125 27.015625 1.195312 C 25.609375 1.621094 24.207031 1.859375 22.8125 1.898438 C 21.582031 1.9375 20.679688 1.957031 20.105469 1.957031 C 19.972656 1.957031 19.445312 1.964844 18.523438 1.984375 C 17.574219 2 16.402344 2.011719 15.011719 2.011719 C 13.644531 2.011719 12.210938 2.019531 10.710938 2.039062 C 9.199219 2.058594 7.765625 2.066406 6.417969 2.066406 L 1.929688 2.066406 C 1.238281 2.066406 0.65625 1.855469 0.183594 1.433594 C -0.359375 0.949219 -0.632812 0.324219 -0.632812 -0.441406 C -0.632812 -0.910156 -0.625 -1.378906 -0.605469 -1.847656 C -0.585938 -2.316406 -0.554688 -2.789062 -0.515625 -3.257812 C -0.449219 -4.277344 -0.421875 -5.320312 -0.441406 -6.382812 C -0.460938 -7.515625 -0.46875 -8.636719 -0.46875 -9.75 C -0.46875 -10.535156 -0.195312 -11.167969 0.347656 -11.652344 C 0.890625 -12.132812 1.546875 -12.332031 2.320312 -12.246094 C 2.636719 -12.214844 3.046875 -12.203125 3.554688 -12.203125 C 4.148438 -12.203125 4.699219 -12.191406 5.203125 -12.171875 C 5.652344 -12.15625 5.9375 -12.148438 6.058594 -12.148438 L 6.128906 -12.148438 L 6.195312 -12.140625 C 6.714844 -12.109375 7.4375 -12.082031 8.359375 -12.0625 C 9.277344 -12.046875 10.25 -12.054688 11.277344 -12.089844 C 12.3125 -12.125 13.28125 -12.179688 14.1875 -12.25 C 14.988281 -12.3125 15.578125 -12.398438 15.957031 -12.507812 L 16.003906 -12.519531 L 16.046875 -12.53125 C 16.058594 -12.535156 16.066406 -12.535156 16.066406 -12.535156 C 16.054688 -12.53125 16.039062 -12.523438 16.023438 -12.515625 C 15.953125 -12.476562 15.890625 -12.421875 15.832031 -12.351562 C 15.730469 -12.234375 15.679688 -12.132812 15.675781 -12.050781 L 15.675781 -12.089844 L 15.679688 -12.125 C 15.65625 -11.851562 15.734375 -11.585938 15.914062 -11.332031 C 16.058594 -11.121094 16.222656 -10.984375 16.40625 -10.917969 C 16.171875 -11.003906 15.84375 -11.046875 15.425781 -11.046875 C 14.820312 -11.046875 14.21875 -11.019531 13.613281 -10.96875 C 12.894531 -10.910156 12.324219 -10.878906 11.898438 -10.878906 L 11.898438 -12.945312 L 12.027344 -10.882812 C 10.707031 -10.800781 9.417969 -10.851562 8.15625 -11.039062 C 6.730469 -11.25 5.390625 -11.769531 4.140625 -12.605469 C 3.21875 -13.203125 2.398438 -13.976562 1.683594 -14.921875 C 0.992188 -15.839844 0.460938 -16.800781 0.0976562 -17.804688 C -0.632812 -19.738281 -0.902344 -21.761719 -0.707031 -23.875 C -0.519531 -25.90625 -0.0117188 -27.835938 0.820312 -29.664062 C 1.34375 -30.800781 1.996094 -31.828125 2.785156 -32.746094 C 3.632812 -33.734375 4.648438 -34.515625 5.828125 -35.082031 C 6.664062 -35.480469 7.53125 -35.839844 8.425781 -36.15625 C 9.476562 -36.53125 10.542969 -36.714844 11.625 -36.714844 L 32.808594 -36.714844 Z M 30.488281 -33.1875 L 31.949219 -34.648438 L 31.949219 -32.585938 L 11.625 -32.585938 C 11.015625 -32.585938 10.410156 -32.476562 9.808594 -32.261719 C 9.050781 -31.992188 8.316406 -31.691406 7.613281 -31.355469 C 6.957031 -31.039062 6.394531 -30.605469 5.921875 -30.054688 C 5.382812 -29.429688 4.9375 -28.730469 4.578125 -27.957031 C 3.941406 -26.550781 3.550781 -25.066406 3.40625 -23.5 C 3.269531 -22.015625 3.460938 -20.585938 3.980469 -19.214844 C 4.203125 -18.601562 4.535156 -18 4.980469 -17.414062 C 5.40625 -16.855469 5.890625 -16.394531 6.433594 -16.042969 C 7.167969 -15.550781 7.941406 -15.246094 8.757812 -15.128906 C 9.734375 -14.984375 10.738281 -14.941406 11.769531 -15.007812 L 11.835938 -15.011719 L 11.898438 -15.011719 C 12.207031 -15.011719 12.664062 -15.035156 13.269531 -15.085938 C 13.988281 -15.148438 14.707031 -15.175781 15.425781 -15.175781 C 16.324219 -15.175781 17.121094 -15.054688 17.804688 -14.808594 C 18.445312 -14.574219 18.945312 -14.203125 19.300781 -13.691406 C 19.691406 -13.132812 19.855469 -12.496094 19.796875 -11.78125 L 17.738281 -11.953125 L 19.800781 -11.855469 C 19.761719 -11.003906 19.488281 -10.277344 18.984375 -9.683594 C 18.492188 -9.097656 17.832031 -8.707031 17.003906 -8.511719 L 16.527344 -10.523438 L 17.09375 -8.535156 C 16.445312 -8.351562 15.585938 -8.214844 14.511719 -8.132812 C 13.546875 -8.054688 12.515625 -8 11.417969 -7.960938 C 10.316406 -7.921875 9.269531 -7.914062 8.277344 -7.933594 C 7.292969 -7.953125 6.503906 -7.980469 5.921875 -8.019531 L 6.058594 -10.082031 L 6.058594 -8.015625 C 5.886719 -8.015625 5.546875 -8.023438 5.042969 -8.042969 C 4.59375 -8.0625 4.097656 -8.070312 3.554688 -8.070312 C 2.921875 -8.070312 2.359375 -8.09375 1.863281 -8.136719 C 2.308594 -8.089844 2.71875 -8.230469 3.09375 -8.566406 C 3.472656 -8.902344 3.664062 -9.296875 3.664062 -9.75 C 3.664062 -8.660156 3.671875 -7.558594 3.691406 -6.453125 C 3.710938 -5.273438 3.679688 -4.09375 3.601562 -2.914062 C 3.566406 -2.5 3.542969 -2.089844 3.523438 -1.675781 C 3.507812 -1.265625 3.5 -0.851562 3.5 -0.441406 C 3.5 -0.914062 3.308594 -1.316406 2.929688 -1.652344 C 2.621094 -1.929688 2.285156 -2.066406 1.929688 -2.066406 L 6.417969 -2.066406 C 7.75 -2.066406 9.164062 -2.074219 10.660156 -2.09375 C 12.175781 -2.113281 13.625 -2.121094 15.011719 -2.121094 C 16.375 -2.121094 17.519531 -2.128906 18.441406 -2.148438 C 19.390625 -2.167969 19.945312 -2.175781 20.105469 -2.175781 C 20.636719 -2.175781 21.496094 -2.195312 22.6875 -2.230469 C 23.71875 -2.261719 24.742188 -2.429688 25.757812 -2.738281 C 26.445312 -2.957031 27.058594 -3.277344 27.601562 -3.699219 C 28.167969 -4.136719 28.554688 -4.507812 28.765625 -4.8125 L 30.464844 -3.636719 L 28.734375 -4.769531 C 29.300781 -5.632812 29.675781 -6.445312 29.859375 -7.203125 C 30.058594 -8.035156 30.160156 -8.628906 30.160156 -8.980469 C 30.160156 -11.109375 29.984375 -12.710938 29.628906 -13.789062 C 29.296875 -14.800781 28.921875 -15.539062 28.507812 -16.003906 C 27.964844 -16.617188 27.476562 -17.105469 27.042969 -17.480469 C 26.382812 -18.03125 25.632812 -18.398438 24.789062 -18.585938 C 23.71875 -18.820312 22.628906 -18.96875 21.519531 -19.035156 C 20.445312 -19.105469 19.628906 -19.113281 19.066406 -19.066406 C 18.222656 -18.996094 17.214844 -19.070312 16.039062 -19.289062 L 16.417969 -21.320312 L 16.160156 -19.269531 C 15.703125 -19.328125 15.203125 -19.457031 14.660156 -19.664062 C 13.941406 -19.9375 13.414062 -20.4375 13.082031 -21.164062 C 12.863281 -21.648438 12.753906 -22.214844 12.753906 -22.863281 C 12.753906 -23.835938 13.125 -24.632812 13.871094 -25.257812 C 14.402344 -25.703125 15.101562 -26.003906 15.964844 -26.160156 C 17.078125 -26.363281 18.367188 -26.484375 19.832031 -26.523438 L 19.886719 -26.523438 C 20.546875 -26.523438 21.601562 -26.488281 23.054688 -26.410156 L 27.605469 -26.164062 C 29.203125 -26.074219 30.617188 -26.007812 31.847656 -25.972656 L 31.785156 -23.90625 L 31.785156 -25.972656 C 31.378906 -25.972656 31.015625 -25.8125 30.695312 -25.492188 C 30.375 -25.171875 30.214844 -24.808594 30.214844 -24.402344 L 32.28125 -24.402344 L 30.222656 -24.226562 L 30.058594 -26.152344 C 29.980469 -27.058594 29.941406 -27.757812 29.941406 -28.261719 C 29.941406 -29.515625 29.960938 -30.464844 30 -31.113281 C 30.035156 -31.703125 30.0625 -32.238281 30.078125 -32.714844 C 30.09375 -33.117188 30.070312 -33.640625 30.003906 -34.28125 L 32.0625 -34.484375 L 30.214844 -33.5625 C 30.277344 -33.433594 30.367188 -33.3125 30.488281 -33.1875 Z M 30.488281 -33.1875 "/></g></g><g style="fill:#000000;fill-opacity:1;"><g transform="translate(92.392608, 103.608089)"><path style="stroke:none" d="M 18.34375 -36.714844 L 31.730469 -36.714844 C 32.148438 -36.714844 32.53125 -36.609375 32.882812 -36.402344 C 33.34375 -36.125 33.65625 -35.730469 33.828125 -35.222656 C 33.992188 -34.730469 33.984375 -34.210938 33.800781 -33.667969 L 31.839844 -34.320312 L 33.84375 -33.820312 C 33.804688 -33.652344 33.660156 -33.136719 33.414062 -32.269531 C 33.179688 -31.4375 32.898438 -30.402344 32.570312 -29.164062 C 32.234375 -27.894531 31.871094 -26.601562 31.480469 -25.277344 C 31.085938 -23.9375 30.695312 -22.734375 30.316406 -21.671875 C 29.75 -20.050781 29.152344 -18.527344 28.527344 -17.097656 C 27.914062 -15.707031 27.390625 -14.554688 26.960938 -13.636719 C 26.765625 -13.21875 26.617188 -12.886719 26.515625 -12.636719 C 26.472656 -12.535156 26.441406 -12.457031 26.421875 -12.398438 C 26.417969 -12.386719 26.417969 -12.378906 26.417969 -12.378906 C 26.425781 -12.414062 26.433594 -12.453125 26.441406 -12.496094 C 26.34375 -11.976562 26.289062 -11.554688 26.273438 -11.230469 C 26.257812 -10.839844 26.25 -10.363281 26.25 -9.804688 C 26.25 -9.074219 26.230469 -8.332031 26.191406 -7.578125 L 26.082031 -5.457031 C 26.046875 -4.605469 26.019531 -3.734375 26 -2.851562 C 25.984375 -2.023438 26.007812 -1.203125 26.078125 -0.390625 L 26.085938 -0.304688 L 26.085938 -0.21875 C 26.085938 0.3125 25.933594 0.78125 25.628906 1.183594 C 25.402344 1.488281 25.113281 1.71875 24.765625 1.875 C 24.476562 2.003906 24.171875 2.066406 23.851562 2.066406 L 8.042969 2.066406 C 7.609375 2.066406 7.210938 1.945312 6.847656 1.707031 C 6.53125 1.492188 6.285156 1.214844 6.113281 0.867188 C 5.949219 0.542969 5.867188 0.179688 5.867188 -0.21875 L 5.867188 -1.378906 C 5.867188 -2.085938 5.875 -2.945312 5.894531 -3.949219 L 5.949219 -6.980469 L 6.003906 -9.710938 C 6.023438 -10.488281 6.03125 -10.996094 6.03125 -11.238281 C 6.03125 -11.511719 6.023438 -11.726562 6.011719 -11.882812 C 6.007812 -11.929688 6.003906 -11.964844 6 -11.984375 C 6.007812 -11.941406 6.023438 -11.890625 6.046875 -11.828125 C 5.960938 -12.058594 5.824219 -12.484375 5.628906 -13.101562 L 5.621094 -13.125 L 5.617188 -13.148438 C 5.570312 -13.3125 5.300781 -13.945312 4.804688 -15.050781 C 4.246094 -16.304688 3.625 -17.957031 2.941406 -20.003906 L 2.933594 -20.035156 L 1.65625 -24.308594 C 1.207031 -25.800781 0.808594 -27.230469 0.453125 -28.59375 L -0.453125 -32.03125 C -0.707031 -32.96875 -0.871094 -33.558594 -0.941406 -33.808594 L -0.960938 -33.886719 L -0.980469 -33.96875 C -1.101562 -34.582031 -1.011719 -35.140625 -0.710938 -35.644531 C -0.476562 -36.035156 -0.152344 -36.324219 0.265625 -36.515625 C 0.5625 -36.648438 0.875 -36.714844 1.210938 -36.714844 L 14.433594 -36.714844 C 14.753906 -36.714844 15.054688 -36.652344 15.34375 -36.523438 C 15.691406 -36.371094 15.980469 -36.140625 16.210938 -35.835938 C 16.511719 -35.429688 16.664062 -34.960938 16.664062 -34.429688 L 14.597656 -34.429688 L 16.660156 -34.535156 C 16.734375 -33.136719 16.839844 -31.742188 16.984375 -30.34375 C 17.128906 -28.929688 17.292969 -27.515625 17.472656 -26.097656 L 15.425781 -25.835938 L 17.464844 -26.148438 C 17.429688 -26.386719 17.300781 -26.605469 17.078125 -26.8125 C 16.808594 -27.0625 16.515625 -27.1875 16.195312 -27.1875 C 15.789062 -27.1875 15.445312 -27.042969 15.160156 -26.761719 C 15.039062 -26.636719 14.964844 -26.53125 14.9375 -26.445312 C 15.050781 -26.84375 15.164062 -27.4375 15.28125 -28.226562 C 15.40625 -29.089844 15.523438 -29.980469 15.632812 -30.898438 C 15.742188 -31.839844 15.84375 -32.675781 15.9375 -33.398438 C 16.035156 -34.160156 16.105469 -34.660156 16.152344 -34.890625 L 16.179688 -35.015625 L 16.21875 -35.136719 C 16.339844 -35.5 16.53125 -35.8125 16.785156 -36.070312 C 17.21875 -36.5 17.738281 -36.714844 18.34375 -36.714844 Z M 18.34375 -32.585938 C 18.878906 -32.585938 19.332031 -32.773438 19.707031 -33.148438 C 19.910156 -33.351562 20.054688 -33.578125 20.140625 -33.832031 L 18.179688 -34.484375 L 20.203125 -34.078125 C 20.175781 -33.945312 20.121094 -33.539062 20.035156 -32.871094 C 19.945312 -32.164062 19.84375 -31.34375 19.734375 -30.414062 C 19.621094 -29.460938 19.5 -28.53125 19.371094 -27.632812 C 19.226562 -26.660156 19.066406 -25.859375 18.886719 -25.230469 C 18.710938 -24.664062 18.445312 -24.199219 18.082031 -23.839844 C 17.5625 -23.316406 16.929688 -23.054688 16.195312 -23.054688 C 15.433594 -23.054688 14.792969 -23.296875 14.265625 -23.785156 C 13.785156 -24.230469 13.492188 -24.808594 13.382812 -25.523438 L 13.378906 -25.546875 L 13.375 -25.574219 C 13.191406 -27.023438 13.023438 -28.472656 12.875 -29.921875 C 12.722656 -31.390625 12.609375 -32.855469 12.535156 -34.324219 L 12.53125 -34.378906 L 12.53125 -34.429688 C 12.53125 -34.042969 12.65625 -33.6875 12.902344 -33.355469 C 13.105469 -33.085938 13.359375 -32.886719 13.667969 -32.75 C 13.914062 -32.640625 14.167969 -32.585938 14.433594 -32.585938 L 1.210938 -32.585938 C 1.472656 -32.585938 1.726562 -32.640625 1.972656 -32.753906 C 2.339844 -32.917969 2.625 -33.171875 2.832031 -33.519531 C 3.078125 -33.929688 3.160156 -34.351562 3.074219 -34.78125 L 1.046875 -34.375 L 3.03125 -34.941406 C 3.109375 -34.675781 3.277344 -34.054688 3.539062 -33.085938 L 4.449219 -29.632812 C 4.792969 -28.320312 5.179688 -26.9375 5.617188 -25.492188 L 6.882812 -21.25 L 4.902344 -20.65625 L 6.863281 -21.3125 C 7.503906 -19.390625 8.074219 -17.867188 8.578125 -16.734375 C 9.152344 -15.453125 9.488281 -14.636719 9.589844 -14.285156 L 7.601562 -13.71875 L 9.574219 -14.332031 C 9.75 -13.777344 9.867188 -13.410156 9.929688 -13.238281 C 10.085938 -12.808594 10.164062 -12.140625 10.164062 -11.238281 C 10.164062 -10.964844 10.15625 -10.425781 10.136719 -9.625 L 10.082031 -6.902344 L 10.027344 -3.871094 C 10.007812 -2.894531 10 -2.0625 10 -1.378906 L 10 -0.21875 C 10 -0.472656 9.933594 -0.726562 9.808594 -0.980469 C 9.652344 -1.289062 9.429688 -1.539062 9.140625 -1.734375 C 8.808594 -1.953125 8.441406 -2.066406 8.042969 -2.066406 L 23.851562 -2.066406 C 23.589844 -2.066406 23.332031 -2.011719 23.085938 -1.902344 C 22.78125 -1.765625 22.527344 -1.5625 22.324219 -1.292969 C 22.078125 -0.964844 21.953125 -0.605469 21.953125 -0.21875 L 24.019531 -0.21875 L 21.960938 -0.046875 C 21.878906 -1 21.851562 -1.964844 21.871094 -2.933594 C 21.890625 -3.847656 21.917969 -4.761719 21.957031 -5.671875 L 22.066406 -7.789062 C 22.101562 -8.472656 22.117188 -9.144531 22.117188 -9.804688 C 22.117188 -10.421875 22.128906 -10.957031 22.148438 -11.410156 C 22.167969 -11.929688 22.242188 -12.519531 22.367188 -13.175781 C 22.433594 -13.582031 22.71875 -14.320312 23.222656 -15.394531 C 23.636719 -16.277344 24.144531 -17.402344 24.742188 -18.761719 C 25.328125 -20.089844 25.886719 -21.523438 26.425781 -23.058594 C 26.777344 -24.054688 27.144531 -25.183594 27.519531 -26.449219 C 27.898438 -27.734375 28.25 -28.992188 28.578125 -30.222656 C 28.910156 -31.480469 29.199219 -32.539062 29.441406 -33.394531 C 29.671875 -34.21875 29.804688 -34.695312 29.835938 -34.820312 L 29.855469 -34.898438 L 29.882812 -34.972656 C 29.773438 -34.648438 29.78125 -34.292969 29.910156 -33.914062 C 30.058594 -33.457031 30.34375 -33.105469 30.757812 -32.859375 C 31.0625 -32.675781 31.386719 -32.585938 31.730469 -32.585938 Z M 18.34375 -32.585938 "/></g></g><g style="fill:#000000;fill-opacity:1;"><g transform="translate(125.444837, 103.608089)"><path style="stroke:none" d="M 34.621094 -15.753906 C 34.621094 -14.863281 34.613281 -13.78125 34.59375 -12.503906 C 34.578125 -11.246094 34.566406 -9.933594 34.566406 -8.566406 C 34.566406 -7.179688 34.558594 -5.875 34.539062 -4.652344 C 34.523438 -3.449219 34.511719 -2.441406 34.511719 -1.625 C 34.511719 -1.238281 34.515625 -0.9375 34.523438 -0.71875 C 34.527344 -0.628906 34.53125 -0.5625 34.535156 -0.519531 C 34.535156 -0.546875 34.523438 -0.597656 34.507812 -0.667969 L 34.566406 -0.417969 L 34.566406 -0.164062 C 34.566406 0.308594 34.441406 0.730469 34.191406 1.105469 C 33.980469 1.421875 33.703125 1.667969 33.363281 1.835938 C 33.058594 1.988281 32.734375 2.066406 32.390625 2.066406 L 18.179688 2.066406 C 17.570312 2.066406 17.058594 1.855469 16.636719 1.433594 C 16.214844 1.011719 16.003906 0.496094 16.003906 -0.109375 L 18.070312 -0.109375 L 16.109375 0.542969 C 15.953125 0.078125 15.808594 -0.386719 15.671875 -0.855469 C 15.550781 -1.269531 15.421875 -1.683594 15.28125 -2.101562 L 17.242188 -2.753906 L 15.296875 -2.054688 C 14.925781 -3.089844 14.628906 -4.289062 14.40625 -5.640625 C 14.242188 -6.640625 14.015625 -7.402344 13.722656 -7.929688 L 13.6875 -7.996094 L 13.652344 -8.070312 C 13.695312 -7.980469 13.757812 -7.890625 13.839844 -7.796875 C 14.007812 -7.605469 14.214844 -7.464844 14.464844 -7.371094 C 14.746094 -7.265625 15.027344 -7.234375 15.316406 -7.285156 C 15.488281 -7.3125 15.640625 -7.363281 15.769531 -7.4375 C 15.945312 -7.542969 16.082031 -7.6875 16.179688 -7.878906 C 16.246094 -8.003906 16.277344 -8.113281 16.277344 -8.207031 L 16.277344 -8.144531 L 16.273438 -8.078125 C 16.207031 -6.972656 16.195312 -5.699219 16.25 -4.261719 L 16.390625 -0.199219 L 16.390625 -0.164062 C 16.390625 0.308594 16.265625 0.730469 16.015625 1.105469 C 15.800781 1.421875 15.527344 1.667969 15.183594 1.835938 C 14.878906 1.988281 14.554688 2.066406 14.210938 2.066406 L 1.535156 2.011719 C 0.933594 2.011719 0.421875 1.800781 0 1.378906 C -0.421875 0.957031 -0.632812 0.441406 -0.632812 -0.164062 C -0.632812 -3.230469 -0.597656 -6.277344 -0.523438 -9.304688 C -0.449219 -12.300781 -0.414062 -15.3125 -0.414062 -18.34375 C -0.414062 -19.363281 -0.421875 -20.566406 -0.441406 -21.953125 C -0.460938 -23.359375 -0.46875 -24.789062 -0.46875 -26.25 C -0.46875 -27.691406 -0.476562 -29.039062 -0.496094 -30.296875 L -0.550781 -33.347656 L -0.578125 -34.515625 L -0.578125 -34.539062 C -0.578125 -35.148438 -0.367188 -35.660156 0.0546875 -36.082031 C 0.476562 -36.503906 0.992188 -36.714844 1.597656 -36.714844 L 15.425781 -36.714844 C 16.011719 -36.714844 16.519531 -36.503906 16.941406 -36.082031 C 17.117188 -35.90625 17.265625 -35.699219 17.382812 -35.464844 L 17.460938 -35.308594 L 17.511719 -35.140625 C 17.789062 -34.222656 18.046875 -33.128906 18.28125 -31.859375 C 18.5 -30.683594 18.734375 -29.511719 18.988281 -28.335938 C 19.21875 -27.261719 19.476562 -26.378906 19.761719 -25.683594 L 19.796875 -25.597656 L 19.824219 -25.507812 C 19.796875 -25.597656 19.746094 -25.695312 19.675781 -25.796875 C 19.53125 -26 19.339844 -26.160156 19.101562 -26.277344 C 18.851562 -26.402344 18.59375 -26.460938 18.324219 -26.445312 C 18.175781 -26.4375 18.046875 -26.414062 17.933594 -26.367188 L 18.003906 -26.394531 L 18.078125 -26.417969 C 17.734375 -26.304688 17.476562 -26.097656 17.308594 -25.792969 C 17.265625 -25.714844 17.238281 -25.644531 17.222656 -25.578125 L 17.21875 -25.589844 L 17.222656 -25.617188 L 17.222656 -25.644531 C 17.292969 -26.363281 17.335938 -27.246094 17.351562 -28.292969 C 17.371094 -29.382812 17.378906 -30.492188 17.378906 -31.621094 L 17.378906 -34.484375 C 17.378906 -34.957031 17.503906 -35.378906 17.753906 -35.753906 C 17.964844 -36.074219 18.242188 -36.316406 18.585938 -36.488281 C 18.886719 -36.640625 19.210938 -36.714844 19.554688 -36.714844 L 32.5 -36.714844 C 32.84375 -36.714844 33.167969 -36.640625 33.472656 -36.488281 C 33.816406 -36.316406 34.089844 -36.074219 34.304688 -35.753906 C 34.554688 -35.378906 34.679688 -34.957031 34.679688 -34.484375 L 34.679688 -34.375 L 34.648438 -25.03125 L 34.621094 -15.75 Z M 30.492188 -15.761719 L 30.519531 -25.042969 L 30.546875 -34.375 L 30.546875 -34.484375 C 30.546875 -34.125 30.652344 -33.78125 30.867188 -33.464844 C 31.058594 -33.171875 31.3125 -32.949219 31.625 -32.792969 C 31.902344 -32.652344 32.195312 -32.585938 32.5 -32.585938 L 19.554688 -32.585938 C 19.863281 -32.585938 20.15625 -32.652344 20.433594 -32.792969 C 20.746094 -32.949219 21 -33.171875 21.191406 -33.464844 C 21.40625 -33.78125 21.511719 -34.125 21.511719 -34.484375 L 21.511719 -31.621094 C 21.511719 -30.46875 21.503906 -29.339844 21.484375 -28.226562 C 21.464844 -27.070312 21.414062 -26.078125 21.335938 -25.253906 L 19.28125 -25.449219 L 21.34375 -25.3125 C 21.304688 -24.730469 21.164062 -24.222656 20.921875 -23.785156 C 20.570312 -23.152344 20.058594 -22.722656 19.382812 -22.5 L 18.730469 -24.460938 L 19.523438 -22.550781 C 18.722656 -22.21875 17.964844 -22.226562 17.253906 -22.582031 C 16.582031 -22.921875 16.121094 -23.488281 15.875 -24.292969 L 17.847656 -24.898438 L 15.9375 -24.117188 C 15.558594 -25.039062 15.230469 -26.15625 14.949219 -27.46875 C 14.6875 -28.679688 14.445312 -29.894531 14.21875 -31.109375 C 14.011719 -32.226562 13.792969 -33.167969 13.558594 -33.9375 L 15.535156 -34.539062 L 13.6875 -33.617188 C 13.769531 -33.453125 13.878906 -33.300781 14.019531 -33.160156 C 14.402344 -32.777344 14.871094 -32.585938 15.425781 -32.585938 L 1.597656 -32.585938 C 2.132812 -32.585938 2.589844 -32.777344 2.976562 -33.160156 C 3.359375 -33.546875 3.554688 -34.007812 3.554688 -34.539062 L 1.488281 -34.539062 L 3.550781 -34.589844 L 3.582031 -33.421875 L 3.636719 -30.355469 C 3.652344 -29.078125 3.664062 -27.710938 3.664062 -26.25 C 3.664062 -24.808594 3.671875 -23.394531 3.691406 -22.007812 C 3.710938 -20.601562 3.71875 -19.382812 3.71875 -18.34375 C 3.71875 -15.277344 3.679688 -12.234375 3.609375 -9.203125 C 3.535156 -6.210938 3.5 -3.195312 3.5 -0.164062 C 3.5 -0.699219 3.304688 -1.160156 2.921875 -1.542969 C 2.535156 -1.929688 2.078125 -2.121094 1.550781 -2.121094 L 14.210938 -2.066406 C 13.90625 -2.066406 13.613281 -1.996094 13.335938 -1.859375 C 13.023438 -1.703125 12.769531 -1.476562 12.578125 -1.1875 C 12.363281 -0.867188 12.257812 -0.527344 12.257812 -0.164062 L 14.324219 -0.164062 L 12.257812 -0.09375 L 12.121094 -4.109375 C 12.0625 -5.683594 12.074219 -7.09375 12.152344 -8.335938 L 14.210938 -8.207031 L 12.148438 -8.207031 C 12.148438 -8.78125 12.265625 -9.296875 12.503906 -9.765625 C 12.777344 -10.292969 13.175781 -10.710938 13.699219 -11.015625 C 14.441406 -11.445312 15.183594 -11.515625 15.929688 -11.234375 C 16.59375 -10.984375 17.089844 -10.496094 17.414062 -9.777344 L 15.535156 -8.925781 L 17.34375 -9.917969 C 17.863281 -8.976562 18.242188 -7.777344 18.480469 -6.3125 C 18.664062 -5.207031 18.898438 -4.253906 19.1875 -3.453125 L 19.203125 -3.40625 C 19.359375 -2.941406 19.503906 -2.476562 19.640625 -2.011719 C 19.761719 -1.59375 19.890625 -1.179688 20.027344 -0.761719 L 20.132812 -0.445312 L 20.132812 -0.109375 C 20.132812 -0.644531 19.941406 -1.101562 19.558594 -1.488281 C 19.171875 -1.875 18.710938 -2.066406 18.179688 -2.066406 L 32.390625 -2.066406 C 32.085938 -2.066406 31.792969 -1.996094 31.515625 -1.859375 C 31.203125 -1.703125 30.949219 -1.476562 30.753906 -1.1875 C 30.542969 -0.867188 30.4375 -0.527344 30.4375 -0.164062 L 32.5 -0.164062 L 30.496094 0.335938 C 30.417969 0.0234375 30.378906 -0.628906 30.378906 -1.625 C 30.378906 -2.460938 30.390625 -3.492188 30.410156 -4.714844 C 30.425781 -5.914062 30.4375 -7.199219 30.4375 -8.566406 C 30.4375 -9.953125 30.445312 -11.285156 30.464844 -12.5625 C 30.480469 -13.820312 30.492188 -14.882812 30.492188 -15.753906 Z M 30.492188 -15.761719 "/></g></g><g style="fill:#000000;fill-opacity:1;"><g transform="translate(159.708982, 103.608089)"><path style="stroke:none" d="M 34.292969 -14.597656 C 34.292969 -14.144531 34.28125 -13.460938 34.265625 -12.546875 L 34.210938 -9.574219 C 34.191406 -8.515625 34.191406 -7.488281 34.210938 -6.480469 C 34.226562 -5.515625 34.269531 -4.710938 34.335938 -4.074219 L 34.347656 -3.964844 L 34.347656 -0.550781 C 34.347656 0.203125 34.101562 0.828125 33.605469 1.324219 C 33.109375 1.816406 32.484375 2.066406 31.730469 2.066406 L 18.839844 2.066406 C 16.398438 2.066406 14.378906 1.917969 12.785156 1.617188 C 11.144531 1.308594 9.8125 0.917969 8.792969 0.4375 C 7.878906 0.0117188 7.140625 -0.363281 6.578125 -0.683594 L 6.515625 -0.722656 C 5.65625 -1.253906 4.820312 -1.867188 4.003906 -2.558594 C 3.109375 -3.316406 2.386719 -4.136719 1.835938 -5.011719 C 0.75 -6.761719 0.046875 -8.367188 -0.28125 -9.824219 C -0.589844 -11.203125 -0.742188 -12.574219 -0.742188 -13.9375 L -0.742188 -20.546875 L 3.386719 -20.546875 L 3.386719 -19.496094 L -0.742188 -19.496094 L -0.742188 -20.601562 C -0.742188 -21.925781 -0.644531 -23.210938 -0.441406 -24.457031 C -0.238281 -25.714844 0.046875 -26.875 0.417969 -27.945312 L 2.367188 -27.269531 L 0.402344 -27.898438 C 0.777344 -29.078125 1.371094 -30.140625 2.171875 -31.085938 C 2.832031 -31.863281 3.53125 -32.621094 4.269531 -33.355469 L 4.304688 -33.394531 L 4.34375 -33.429688 C 5.328125 -34.320312 6.566406 -35.011719 8.050781 -35.507812 C 9.398438 -35.957031 10.847656 -36.273438 12.402344 -36.453125 C 13.894531 -36.628906 15.363281 -36.714844 16.800781 -36.714844 L 31.398438 -36.714844 C 32.082031 -36.714844 32.730469 -36.433594 33.347656 -35.871094 C 34.015625 -35.257812 34.347656 -34.578125 34.347656 -33.824219 L 34.347656 -30.761719 L 34.285156 -30.511719 C 34.269531 -30.445312 34.257812 -30.382812 34.25 -30.316406 C 34.242188 -30.253906 34.238281 -30.195312 34.238281 -30.132812 L 34.238281 -30.019531 L 34.222656 -29.90625 C 34.199219 -29.664062 34.191406 -29.082031 34.210938 -28.160156 L 34.265625 -24.90625 L 34.320312 -21.90625 L 34.347656 -20.648438 C 34.347656 -19.90625 34.128906 -19.292969 33.691406 -18.808594 C 33.199219 -18.261719 32.5625 -17.984375 31.785156 -17.984375 L 31.671875 -17.984375 L 31.558594 -18 C 31.316406 -18.027344 30.792969 -18.03125 29.980469 -18.015625 L 26.835938 -17.957031 C 25.652344 -17.941406 24.484375 -17.914062 23.339844 -17.875 C 22.175781 -17.839844 21.160156 -17.8125 20.289062 -17.792969 C 19.410156 -17.773438 18.875 -17.765625 18.675781 -17.765625 C 18.335938 -17.765625 18.070312 -17.734375 17.875 -17.675781 C 17.828125 -17.660156 17.792969 -17.644531 17.769531 -17.632812 C 17.773438 -17.632812 17.78125 -17.640625 17.792969 -17.65625 C 17.699219 -17.554688 17.636719 -17.476562 17.609375 -17.425781 C 17.640625 -17.488281 17.65625 -17.574219 17.65625 -17.683594 C 17.65625 -17.574219 17.664062 -17.5 17.683594 -17.46875 C 17.695312 -17.453125 17.722656 -17.4375 17.753906 -17.417969 C 18.132812 -17.191406 18.382812 -17.074219 18.5 -17.054688 C 18.859375 -17.003906 19.375 -16.945312 20.046875 -16.875 C 20.402344 -16.84375 21.019531 -16.828125 21.898438 -16.828125 C 22.824219 -16.828125 23.832031 -16.839844 24.921875 -16.855469 L 28.085938 -16.910156 L 30.613281 -16.964844 L 31.703125 -16.996094 L 31.730469 -16.996094 C 32.277344 -16.996094 32.765625 -16.851562 33.191406 -16.566406 C 33.667969 -16.246094 34 -15.808594 34.1875 -15.25 L 34.292969 -14.933594 Z M 30.160156 -14.597656 L 32.226562 -14.597656 L 30.265625 -13.945312 C 30.378906 -13.605469 30.589844 -13.335938 30.902344 -13.128906 C 31.164062 -12.949219 31.441406 -12.863281 31.730469 -12.863281 L 31.730469 -14.929688 L 31.785156 -12.863281 L 30.703125 -12.835938 L 28.160156 -12.78125 L 24.988281 -12.726562 C 23.875 -12.707031 22.84375 -12.699219 21.898438 -12.699219 C 20.902344 -12.699219 20.144531 -12.71875 19.617188 -12.765625 C 18.890625 -12.839844 18.324219 -12.90625 17.914062 -12.964844 C 17.257812 -13.058594 16.496094 -13.363281 15.628906 -13.875 C 14.9375 -14.289062 14.410156 -14.832031 14.046875 -15.503906 C 13.699219 -16.148438 13.523438 -16.875 13.523438 -17.683594 C 13.523438 -18.679688 13.957031 -19.625 14.816406 -20.519531 C 15.703125 -21.4375 16.988281 -21.898438 18.675781 -21.898438 C 18.84375 -21.898438 19.351562 -21.90625 20.199219 -21.925781 C 21.058594 -21.941406 22.058594 -21.96875 23.210938 -22.007812 C 24.378906 -22.042969 25.5625 -22.070312 26.765625 -22.089844 L 29.898438 -22.144531 C 30.886719 -22.164062 31.59375 -22.152344 32.015625 -22.105469 L 31.785156 -20.050781 L 31.785156 -22.117188 C 31.335938 -22.117188 30.949219 -21.9375 30.621094 -21.570312 C 30.351562 -21.269531 30.214844 -20.933594 30.214844 -20.558594 L 30.1875 -21.832031 L 30.132812 -24.835938 L 30.078125 -28.085938 C 30.058594 -29.183594 30.070312 -29.941406 30.117188 -30.359375 L 32.171875 -30.132812 L 30.105469 -30.132812 C 30.105469 -30.367188 30.121094 -30.597656 30.148438 -30.828125 C 30.175781 -31.058594 30.21875 -31.289062 30.277344 -31.515625 L 32.28125 -31.015625 L 30.214844 -31.015625 L 30.214844 -33.824219 C 30.214844 -33.5 30.292969 -33.210938 30.453125 -32.960938 C 30.496094 -32.894531 30.53125 -32.847656 30.554688 -32.824219 L 30.554688 -32.828125 C 30.582031 -32.808594 30.613281 -32.785156 30.652344 -32.765625 C 30.871094 -32.644531 31.121094 -32.585938 31.398438 -32.585938 L 16.800781 -32.585938 C 15.523438 -32.585938 14.214844 -32.507812 12.882812 -32.351562 C 11.609375 -32.203125 10.433594 -31.949219 9.355469 -31.589844 C 8.417969 -31.277344 7.671875 -30.867188 7.113281 -30.363281 L 5.730469 -31.894531 L 7.191406 -30.433594 C 6.53125 -29.777344 5.910156 -29.101562 5.320312 -28.410156 C 4.875 -27.886719 4.546875 -27.292969 4.335938 -26.640625 L 4.320312 -26.59375 C 4.03125 -25.75 3.800781 -24.820312 3.636719 -23.800781 C 3.472656 -22.769531 3.386719 -21.703125 3.386719 -20.601562 L 3.386719 -19.496094 C 3.386719 -19.21875 3.335938 -18.957031 3.230469 -18.703125 C 3.125 -18.449219 2.976562 -18.226562 2.78125 -18.035156 C 2.589844 -17.839844 2.367188 -17.691406 2.113281 -17.585938 C 1.859375 -17.480469 1.597656 -17.429688 1.320312 -17.429688 C 1.046875 -17.429688 0.785156 -17.480469 0.53125 -17.585938 C 0.277344 -17.691406 0.0546875 -17.839844 -0.140625 -18.035156 C -0.332031 -18.226562 -0.480469 -18.449219 -0.585938 -18.703125 C -0.691406 -18.957031 -0.742188 -19.21875 -0.742188 -19.496094 L -0.742188 -20.546875 L 3.386719 -20.546875 L 3.386719 -13.9375 C 3.386719 -12.878906 3.507812 -11.808594 3.75 -10.726562 C 3.976562 -9.722656 4.5 -8.550781 5.328125 -7.21875 C 5.65625 -6.699219 6.105469 -6.195312 6.679688 -5.707031 C 7.335938 -5.148438 8.007812 -4.660156 8.691406 -4.234375 L 7.601562 -2.480469 L 8.628906 -4.273438 C 9.09375 -4.007812 9.730469 -3.683594 10.542969 -3.304688 C 11.25 -2.972656 12.25 -2.6875 13.546875 -2.445312 C 14.890625 -2.191406 16.65625 -2.066406 18.839844 -2.066406 L 31.730469 -2.066406 C 31.34375 -2.066406 30.996094 -1.910156 30.683594 -1.597656 C 30.371094 -1.285156 30.214844 -0.9375 30.214844 -0.550781 L 30.214844 -3.855469 L 32.28125 -3.855469 L 30.226562 -3.640625 C 30.148438 -4.398438 30.097656 -5.320312 30.078125 -6.410156 C 30.058594 -7.460938 30.058594 -8.542969 30.078125 -9.652344 L 30.132812 -12.628906 C 30.152344 -13.515625 30.160156 -14.171875 30.160156 -14.597656 Z M 30.160156 -14.597656 "/></g></g><g style="fill:#000000;fill-opacity:1;"><g transform="translate(193.642608, 103.608089)"><path style="stroke:none" d="M 34.183594 -34.539062 C 34.183594 -33.105469 34.21875 -31.660156 34.289062 -30.207031 C 34.367188 -28.652344 34.367188 -27.105469 34.289062 -25.566406 L 34.179688 -23.441406 C 34.144531 -22.796875 34.144531 -22.140625 34.179688 -21.476562 L 34.183594 -21.425781 L 34.183594 -21.375 C 34.183594 -20.726562 33.996094 -20.167969 33.621094 -19.699219 C 33.195312 -19.167969 32.632812 -18.859375 31.933594 -18.773438 C 31.242188 -18.6875 30.453125 -18.65625 29.5625 -18.675781 C 28.804688 -18.691406 28.097656 -18.691406 27.433594 -18.675781 C 27.1875 -18.667969 27.003906 -18.65625 26.878906 -18.632812 L 26.871094 -18.632812 C 26.960938 -18.664062 27.050781 -18.710938 27.148438 -18.773438 C 27.183594 -18.796875 27.210938 -18.820312 27.226562 -18.835938 C 27.210938 -18.820312 27.191406 -18.796875 27.160156 -18.761719 C 27.230469 -18.839844 27.277344 -18.914062 27.3125 -18.984375 C 27.3125 -18.992188 27.316406 -18.996094 27.316406 -19 C 27.3125 -18.984375 27.308594 -18.964844 27.300781 -18.941406 L 25.285156 -19.390625 L 27.335938 -19.132812 C 27.304688 -18.902344 27.273438 -18.316406 27.238281 -17.386719 C 27.203125 -16.421875 27.1875 -15.261719 27.1875 -13.910156 L 27.1875 -2.09375 C 27.1875 -1.679688 27.191406 -1.359375 27.199219 -1.136719 C 27.203125 -1.050781 27.203125 -0.988281 27.207031 -0.949219 C 27.199219 -1.03125 27.175781 -1.136719 27.136719 -1.257812 L 27.242188 -0.941406 L 27.242188 -0.605469 C 27.242188 0.0859375 27.042969 0.675781 26.648438 1.15625 C 26.152344 1.761719 25.496094 2.066406 24.679688 2.066406 L 9.308594 2.066406 C 8.550781 2.066406 7.921875 1.792969 7.429688 1.246094 C 7.046875 0.816406 6.820312 0.289062 6.757812 -0.34375 L 6.75 -0.449219 L 6.75 -0.550781 C 6.75 -1.039062 6.757812 -1.859375 6.777344 -3.007812 C 6.792969 -4.152344 6.820312 -5.445312 6.859375 -6.882812 L 6.96875 -11.152344 L 7.050781 -14.808594 C 7.066406 -15.734375 7.0625 -16.292969 7.039062 -16.492188 C 6.953125 -17.144531 6.921875 -17.804688 6.941406 -18.46875 C 6.941406 -18.421875 6.949219 -18.390625 6.96875 -18.371094 L 8.429688 -19.832031 L 7.054688 -18.289062 C 6.9375 -18.394531 6.816406 -18.464844 6.699219 -18.503906 C 6.46875 -18.582031 6.226562 -18.632812 5.984375 -18.65625 C 5.699219 -18.6875 5.265625 -18.703125 4.683594 -18.703125 L 2.09375 -18.703125 C 1.316406 -18.703125 0.679688 -18.976562 0.1875 -19.523438 C -0.25 -20.007812 -0.46875 -20.605469 -0.46875 -21.320312 L -0.46875 -22.0625 C -0.46875 -22.539062 -0.476562 -23.066406 -0.496094 -23.652344 C -0.511719 -24.203125 -0.535156 -24.617188 -0.566406 -24.890625 L -0.570312 -24.933594 L -0.574219 -24.972656 C -0.613281 -25.511719 -0.648438 -26.277344 -0.6875 -27.273438 C -0.726562 -28.273438 -0.742188 -29.308594 -0.742188 -30.382812 L -0.742188 -34.320312 C -0.742188 -34.699219 -0.660156 -35.054688 -0.496094 -35.386719 C -0.308594 -35.757812 -0.046875 -36.054688 0.300781 -36.285156 C 0.730469 -36.574219 1.234375 -36.714844 1.816406 -36.714844 L 32.492188 -36.714844 L 32.984375 -36.46875 C 33.332031 -36.296875 33.609375 -36.050781 33.820312 -35.734375 C 34.0625 -35.375 34.183594 -34.976562 34.183594 -34.539062 Z M 30.050781 -34.539062 C 30.050781 -34.140625 30.160156 -33.777344 30.382812 -33.441406 C 30.578125 -33.152344 30.828125 -32.929688 31.136719 -32.773438 L 31.082031 -32.800781 L 32.007812 -34.648438 L 32.007812 -32.585938 L 1.816406 -32.585938 C 2.070312 -32.585938 2.328125 -32.671875 2.59375 -32.847656 C 2.855469 -33.023438 3.058594 -33.253906 3.199219 -33.539062 C 3.324219 -33.789062 3.386719 -34.050781 3.386719 -34.320312 L 3.386719 -30.382812 C 3.386719 -29.359375 3.40625 -28.375 3.441406 -27.429688 C 3.476562 -26.480469 3.511719 -25.757812 3.546875 -25.265625 L 1.488281 -25.121094 L 3.539062 -25.347656 C 3.582031 -24.960938 3.613281 -24.4375 3.636719 -23.777344 C 3.652344 -23.152344 3.664062 -22.578125 3.664062 -22.0625 L 3.664062 -21.320312 C 3.664062 -21.664062 3.527344 -21.988281 3.257812 -22.289062 C 2.929688 -22.652344 2.542969 -22.835938 2.09375 -22.835938 L 4.683594 -22.835938 C 5.417969 -22.835938 5.976562 -22.8125 6.355469 -22.769531 C 6.921875 -22.71875 7.46875 -22.605469 8.007812 -22.425781 C 8.660156 -22.207031 9.257812 -21.855469 9.800781 -21.375 L 9.847656 -21.335938 L 9.890625 -21.292969 C 10.714844 -20.464844 11.109375 -19.480469 11.070312 -18.332031 C 11.058594 -17.894531 11.078125 -17.453125 11.140625 -17.003906 C 11.1875 -16.613281 11.203125 -15.851562 11.183594 -14.71875 L 11.101562 -11.046875 L 10.988281 -6.777344 C 10.953125 -5.351562 10.925781 -4.074219 10.90625 -2.941406 C 10.890625 -1.8125 10.878906 -1.015625 10.878906 -0.550781 L 8.8125 -0.550781 L 10.871094 -0.757812 C 10.84375 -1.023438 10.71875 -1.277344 10.5 -1.519531 C 10.171875 -1.882812 9.777344 -2.066406 9.308594 -2.066406 L 24.679688 -2.066406 C 24.191406 -2.066406 23.78125 -1.863281 23.453125 -1.460938 C 23.222656 -1.179688 23.109375 -0.894531 23.109375 -0.605469 L 25.175781 -0.605469 L 23.214844 0.046875 C 23.109375 -0.273438 23.054688 -0.988281 23.054688 -2.09375 L 23.054688 -13.910156 C 23.054688 -15.3125 23.074219 -16.523438 23.109375 -17.539062 C 23.148438 -18.589844 23.191406 -19.292969 23.234375 -19.648438 L 23.246094 -19.742188 L 23.269531 -19.839844 C 23.417969 -20.519531 23.6875 -21.074219 24.070312 -21.507812 C 24.335938 -21.804688 24.597656 -22.039062 24.855469 -22.210938 C 25.40625 -22.578125 26.230469 -22.777344 27.324219 -22.804688 C 28.054688 -22.824219 28.835938 -22.824219 29.65625 -22.804688 C 30.34375 -22.789062 30.933594 -22.8125 31.417969 -22.875 C 31.011719 -22.820312 30.667969 -22.625 30.394531 -22.277344 C 30.164062 -21.992188 30.050781 -21.691406 30.050781 -21.375 L 32.117188 -21.375 L 30.054688 -21.269531 C 30.011719 -22.074219 30.011719 -22.871094 30.054688 -23.65625 L 30.164062 -25.773438 C 30.234375 -27.175781 30.234375 -28.585938 30.164062 -30.003906 C 30.085938 -31.523438 30.050781 -33.035156 30.050781 -34.539062 Z M 30.050781 -34.539062 "/></g></g><g style="fill:#000000;fill-opacity:1;"><g transform="translate(227.410972, 103.608089)"><path style="stroke:none" d="M 1.652344 -36.714844 L 16.910156 -36.714844 C 17.71875 -36.714844 18.378906 -36.4375 18.890625 -35.882812 C 19.351562 -35.375 19.582031 -34.746094 19.582031 -33.988281 L 19.582031 -33.882812 L 19.574219 -33.777344 C 19.46875 -32.777344 19.410156 -31.371094 19.390625 -29.5625 C 19.371094 -27.695312 19.363281 -25.671875 19.363281 -23.496094 C 19.363281 -21.320312 19.382812 -19.203125 19.417969 -17.140625 L 19.5 -11.65625 C 19.519531 -10.101562 19.546875 -9.03125 19.582031 -8.441406 L 19.582031 -8.316406 C 19.582031 -7.074219 19.621094 -5.835938 19.691406 -4.609375 C 19.761719 -3.359375 19.851562 -2.105469 19.960938 -0.835938 C 20.03125 -0.0117188 19.8125 0.675781 19.300781 1.230469 C 18.792969 1.789062 18.125 2.066406 17.296875 2.066406 L 1.707031 2.066406 C 1.371094 2.066406 1.058594 2 0.761719 1.863281 C 0.34375 1.675781 0.0195312 1.382812 -0.214844 0.992188 C -0.515625 0.492188 -0.605469 -0.0664062 -0.484375 -0.679688 L 1.542969 -0.277344 L -0.5 -0.589844 C -0.4375 -0.984375 -0.390625 -1.777344 -0.355469 -2.980469 C -0.320312 -4.246094 -0.304688 -5.667969 -0.304688 -7.242188 C -0.304688 -8.832031 -0.3125 -10.328125 -0.332031 -11.734375 C -0.347656 -13.121094 -0.375 -14.171875 -0.410156 -14.878906 L -0.414062 -14.933594 L -0.414062 -14.984375 C -0.414062 -15.855469 -0.421875 -17.003906 -0.441406 -18.429688 L -0.496094 -23.058594 L -0.550781 -27.878906 L -0.605469 -31.976562 C -0.625 -33.160156 -0.632812 -33.976562 -0.632812 -34.429688 L -0.632812 -35.285156 L 0.796875 -36.714844 Z M 1.652344 -32.585938 L 1.652344 -34.648438 L 3.113281 -33.1875 L 2.894531 -32.96875 L 1.433594 -34.429688 L 3.5 -34.429688 C 3.5 -34 3.507812 -33.203125 3.527344 -32.035156 L 3.582031 -27.925781 L 3.636719 -23.105469 L 3.691406 -18.480469 C 3.710938 -17.039062 3.71875 -15.875 3.71875 -14.984375 L 1.652344 -14.984375 L 3.714844 -15.085938 C 3.753906 -14.328125 3.78125 -13.226562 3.800781 -11.789062 C 3.820312 -10.363281 3.828125 -8.851562 3.828125 -7.242188 C 3.828125 -5.625 3.808594 -4.164062 3.773438 -2.859375 C 3.734375 -1.488281 3.671875 -0.523438 3.585938 0.0390625 L 3.578125 0.0859375 L 3.566406 0.128906 C 3.65625 -0.300781 3.574219 -0.722656 3.328125 -1.132812 C 3.121094 -1.476562 2.835938 -1.730469 2.46875 -1.898438 C 2.222656 -2.011719 1.96875 -2.066406 1.707031 -2.066406 L 17.296875 -2.066406 C 17.179688 -2.066406 17.050781 -2.042969 16.914062 -1.996094 C 16.660156 -1.910156 16.441406 -1.765625 16.257812 -1.5625 C 16.070312 -1.359375 15.945312 -1.128906 15.882812 -0.871094 C 15.847656 -0.734375 15.835938 -0.605469 15.84375 -0.484375 C 15.734375 -1.789062 15.640625 -3.085938 15.566406 -4.371094 C 15.488281 -5.675781 15.453125 -6.992188 15.453125 -8.316406 L 17.519531 -8.316406 L 15.457031 -8.195312 C 15.417969 -8.855469 15.386719 -9.984375 15.371094 -11.59375 L 15.285156 -17.066406 C 15.25 -19.15625 15.230469 -21.296875 15.230469 -23.496094 C 15.230469 -25.6875 15.242188 -27.722656 15.257812 -29.601562 C 15.277344 -31.539062 15.347656 -33.074219 15.464844 -34.203125 L 17.519531 -33.988281 L 15.453125 -33.988281 C 15.453125 -33.671875 15.582031 -33.375 15.84375 -33.089844 C 16.152344 -32.753906 16.507812 -32.585938 16.910156 -32.585938 Z M 1.652344 -32.585938 "/></g></g><g style="fill:#000000;fill-opacity:1;"><g transform="translate(246.746526, 103.608089)"><path style="stroke:none" d="M 34.347656 -16.195312 C 34.347656 -14.917969 34.28125 -13.582031 34.144531 -12.195312 C 34 -10.71875 33.792969 -9.574219 33.523438 -8.765625 L 33.507812 -8.71875 L 32.914062 -7.183594 C 32.449219 -5.988281 31.742188 -4.8125 30.796875 -3.652344 L 30.761719 -3.605469 L 30.71875 -3.5625 C 30.226562 -3.023438 29.4375 -2.355469 28.355469 -1.558594 C 27.25 -0.746094 26.148438 -0.105469 25.042969 0.359375 C 23.726562 0.894531 22.445312 1.285156 21.195312 1.53125 C 19.941406 1.777344 19.03125 1.902344 18.453125 1.902344 L 18.453125 -0.164062 L 18.683594 1.886719 C 18.292969 1.929688 17.722656 1.960938 16.964844 1.984375 C 16.25 2 15.535156 2.011719 14.820312 2.011719 L 13.277344 2.011719 L 13.277344 -0.0546875 L 13.324219 2.011719 L 12.140625 2.039062 C 11.371094 2.054688 10.429688 2.066406 9.308594 2.066406 L 2.148438 2.066406 C 1.351562 2.066406 0.707031 1.792969 0.214844 1.246094 C -0.277344 0.699219 -0.480469 0.03125 -0.402344 -0.757812 L -0.386719 -0.90625 L -0.351562 -1.050781 C -0.316406 -1.191406 -0.289062 -1.71875 -0.273438 -2.625 C -0.257812 -3.679688 -0.246094 -4.886719 -0.246094 -6.253906 L -0.246094 -10.21875 C -0.246094 -11.453125 -0.265625 -12.417969 -0.300781 -13.117188 L -0.300781 -13.175781 C -0.339844 -14.773438 -0.394531 -16.375 -0.464844 -17.976562 C -0.539062 -19.605469 -0.597656 -21.238281 -0.632812 -22.871094 L -0.632812 -32.453125 L -0.519531 -34.335938 L 1.542969 -34.210938 L -0.523438 -34.210938 C -0.523438 -34.925781 -0.285156 -35.523438 0.191406 -36 C 0.667969 -36.476562 1.265625 -36.714844 1.984375 -36.714844 L 16.96875 -36.714844 L 16.96875 -32.585938 L 15.1875 -32.585938 L 15.1875 -36.714844 L 17.023438 -36.714844 C 19.265625 -36.714844 21.246094 -36.480469 22.964844 -36.007812 C 24.792969 -35.507812 26.644531 -34.488281 28.527344 -32.941406 L 27.214844 -31.34375 L 28.484375 -32.972656 C 29.90625 -31.863281 31.007812 -30.527344 31.789062 -28.964844 C 32.496094 -27.546875 33.007812 -26.222656 33.320312 -24.996094 C 33.605469 -23.867188 33.792969 -23.074219 33.875 -22.625 C 33.957031 -22.160156 34.039062 -21.492188 34.117188 -20.625 C 34.195312 -19.785156 34.253906 -18.945312 34.289062 -18.109375 C 34.328125 -17.269531 34.347656 -16.632812 34.347656 -16.195312 Z M 30.214844 -16.195312 C 30.214844 -16.570312 30.199219 -17.144531 30.164062 -17.917969 C 30.128906 -18.695312 30.074219 -19.472656 30.003906 -20.25 C 29.9375 -20.996094 29.871094 -21.542969 29.808594 -21.886719 C 29.742188 -22.242188 29.578125 -22.941406 29.316406 -23.976562 C 29.078125 -24.917969 28.667969 -25.964844 28.09375 -27.117188 C 27.589844 -28.125 26.871094 -28.992188 25.941406 -29.71875 L 25.902344 -29.75 C 24.476562 -30.921875 23.132812 -31.679688 21.875 -32.023438 C 20.511719 -32.398438 18.894531 -32.585938 17.023438 -32.585938 L 15.1875 -32.585938 C 14.910156 -32.585938 14.648438 -32.636719 14.394531 -32.742188 C 14.140625 -32.847656 13.917969 -32.996094 13.726562 -33.1875 C 13.53125 -33.382812 13.382812 -33.605469 13.277344 -33.859375 C 13.171875 -34.113281 13.121094 -34.375 13.121094 -34.648438 C 13.121094 -34.925781 13.171875 -35.1875 13.277344 -35.441406 C 13.382812 -35.695312 13.53125 -35.917969 13.726562 -36.109375 C 13.917969 -36.304688 14.140625 -36.453125 14.394531 -36.558594 C 14.648438 -36.664062 14.910156 -36.714844 15.1875 -36.714844 L 16.96875 -36.714844 L 16.96875 -32.585938 L 1.984375 -32.585938 C 2.40625 -32.585938 2.785156 -32.75 3.113281 -33.078125 C 3.445312 -33.410156 3.609375 -33.785156 3.609375 -34.210938 L 3.609375 -34.148438 L 3.496094 -32.265625 L 1.433594 -32.390625 L 3.5 -32.390625 L 3.5 -22.917969 L 1.433594 -22.917969 L 3.496094 -22.964844 C 3.535156 -21.363281 3.589844 -19.761719 3.660156 -18.164062 C 3.734375 -16.53125 3.792969 -14.898438 3.828125 -13.269531 L 1.761719 -13.222656 L 3.824219 -13.324219 C 3.863281 -12.554688 3.882812 -11.519531 3.882812 -10.21875 L 3.882812 -6.253906 C 3.882812 -4.863281 3.875 -3.628906 3.855469 -2.554688 C 3.835938 -1.332031 3.769531 -0.496094 3.65625 -0.0507812 L 1.652344 -0.550781 L 3.707031 -0.34375 C 3.75 -0.765625 3.609375 -1.160156 3.285156 -1.519531 C 3.085938 -1.738281 2.855469 -1.894531 2.585938 -1.988281 C 2.433594 -2.039062 2.289062 -2.066406 2.148438 -2.066406 L 9.308594 -2.066406 C 10.394531 -2.066406 11.304688 -2.074219 12.042969 -2.09375 L 13.253906 -2.121094 L 14.820312 -2.121094 C 15.5 -2.121094 16.179688 -2.128906 16.859375 -2.148438 C 17.496094 -2.164062 17.953125 -2.1875 18.226562 -2.21875 L 18.339844 -2.230469 L 18.453125 -2.230469 C 18.761719 -2.230469 19.410156 -2.328125 20.398438 -2.523438 C 21.386719 -2.71875 22.398438 -3.023438 23.433594 -3.445312 C 24.238281 -3.785156 25.0625 -4.265625 25.90625 -4.886719 C 26.769531 -5.523438 27.359375 -6.011719 27.671875 -6.355469 L 29.195312 -4.957031 L 27.59375 -6.261719 C 28.265625 -7.085938 28.753906 -7.890625 29.0625 -8.679688 L 29.640625 -10.167969 L 31.566406 -9.421875 L 29.605469 -10.074219 C 29.777344 -10.585938 29.917969 -11.425781 30.03125 -12.59375 C 30.15625 -13.851562 30.214844 -15.050781 30.214844 -16.195312 Z M 15.925781 -14.363281 C 15.980469 -14.660156 16.015625 -15.132812 16.03125 -15.777344 C 16.046875 -16.496094 16.046875 -17.238281 16.03125 -17.992188 C 16.011719 -18.742188 15.988281 -19.316406 15.953125 -19.714844 L 18.015625 -19.886719 L 15.960938 -19.652344 C 15.902344 -20.167969 15.828125 -20.574219 15.734375 -20.871094 C 15.707031 -20.964844 15.679688 -21.035156 15.65625 -21.078125 C 15.671875 -21.054688 15.699219 -21.015625 15.746094 -20.96875 C 15.714844 -21 15.691406 -21.023438 15.671875 -21.039062 C 15.675781 -21.035156 15.6875 -21.027344 15.707031 -21.019531 C 15.84375 -20.945312 16.003906 -20.90625 16.195312 -20.90625 C 16.398438 -20.90625 16.601562 -20.964844 16.800781 -21.078125 C 17.023438 -21.207031 17.191406 -21.375 17.300781 -21.585938 C 17.34375 -21.664062 17.371094 -21.726562 17.382812 -21.777344 C 17.378906 -21.757812 17.371094 -21.714844 17.363281 -21.65625 C 17.339844 -21.453125 17.324219 -21.175781 17.324219 -20.824219 L 17.324219 -14.046875 C 17.324219 -13.511719 17.359375 -13.058594 17.429688 -12.6875 C 17.386719 -12.914062 17.257812 -13.121094 17.035156 -13.3125 C 16.789062 -13.527344 16.527344 -13.632812 16.25 -13.632812 C 16.199219 -13.632812 16.121094 -13.613281 16.027344 -13.566406 C 15.847656 -13.480469 15.707031 -13.359375 15.605469 -13.195312 C 15.691406 -13.328125 15.800781 -13.730469 15.933594 -14.398438 Z M 19.984375 -13.585938 C 19.75 -12.417969 19.457031 -11.554688 19.097656 -10.988281 C 18.777344 -10.476562 18.34375 -10.089844 17.796875 -9.832031 C 17.335938 -9.613281 16.820312 -9.503906 16.25 -9.503906 C 15.496094 -9.503906 14.855469 -9.734375 14.324219 -10.195312 C 13.816406 -10.636719 13.5 -11.214844 13.367188 -11.9375 C 13.25 -12.554688 13.195312 -13.261719 13.195312 -14.046875 L 13.195312 -20.824219 C 13.195312 -22.050781 13.347656 -22.953125 13.65625 -23.53125 C 13.914062 -24.015625 14.277344 -24.390625 14.738281 -24.65625 C 15.175781 -24.910156 15.660156 -25.039062 16.195312 -25.039062 C 17.117188 -25.039062 17.964844 -24.632812 18.738281 -23.816406 C 19.425781 -23.097656 19.867188 -21.867188 20.066406 -20.121094 L 20.074219 -20.058594 C 20.113281 -19.578125 20.140625 -18.921875 20.160156 -18.089844 C 20.179688 -17.265625 20.179688 -16.460938 20.160156 -15.675781 C 20.140625 -14.816406 20.082031 -14.132812 19.992188 -13.621094 Z M 19.984375 -13.585938 "/></g></g><g style="fill:#000000;fill-opacity:1;"><g transform="translate(280.459811, 103.608089)"><path style="stroke:none" d="M 34.183594 -9.144531 L 34.183594 -6.113281 C 34.183594 -5.84375 34.191406 -5.421875 34.207031 -4.855469 C 34.226562 -4.285156 34.253906 -3.667969 34.289062 -3.003906 C 34.328125 -2.3125 34.355469 -1.722656 34.375 -1.234375 L 34.402344 -0.480469 L 34.402344 -0.441406 C 34.402344 0.277344 34.164062 0.875 33.6875 1.351562 C 33.210938 1.828125 32.613281 2.066406 31.894531 2.066406 L 2.09375 2.066406 C 1.234375 2.066406 0.542969 1.78125 0.015625 1.214844 C -0.511719 0.644531 -0.746094 -0.0664062 -0.683594 -0.917969 L 1.378906 -0.769531 L -0.6875 -0.855469 C -0.578125 -3.585938 -0.515625 -6.324219 -0.496094 -9.074219 L -0.414062 -17.429688 C -0.375 -20.183594 -0.273438 -22.953125 -0.105469 -25.738281 C 0.0507812 -28.351562 -0.0625 -30.945312 -0.445312 -33.519531 C -0.585938 -34.367188 -0.367188 -35.117188 0.21875 -35.773438 C 0.777344 -36.402344 1.476562 -36.714844 2.3125 -36.714844 L 31.675781 -36.714844 C 32.246094 -36.714844 32.75 -36.550781 33.191406 -36.21875 C 33.609375 -35.90625 33.902344 -35.492188 34.074219 -34.972656 L 34.183594 -34.65625 L 34.183594 -34.320312 C 34.183594 -34.238281 34.171875 -34.03125 34.152344 -33.695312 C 34.128906 -33.359375 34.097656 -33.023438 34.054688 -32.6875 L 32.007812 -32.941406 L 34.070312 -32.941406 C 34.070312 -32.71875 34.050781 -32.261719 34.015625 -31.5625 C 33.976562 -30.921875 33.953125 -30.253906 33.933594 -29.558594 C 33.914062 -28.859375 33.90625 -28.335938 33.90625 -27.984375 C 33.90625 -27.664062 33.921875 -27.261719 33.957031 -26.777344 C 33.992188 -26.285156 34.03125 -25.851562 34.082031 -25.46875 L 34.183594 -24.703125 L 34.183594 -24.570312 C 34.183594 -23.804688 33.910156 -23.179688 33.363281 -22.695312 C 32.890625 -22.273438 32.308594 -22.0625 31.621094 -22.0625 L 31.59375 -22.0625 L 30.492188 -22.089844 C 29.792969 -22.109375 28.902344 -22.117188 27.820312 -22.117188 L 24.320312 -22.117188 C 23.113281 -22.117188 22 -22.101562 20.976562 -22.0625 C 19.992188 -22.027344 19.238281 -21.980469 18.710938 -21.914062 C 18.371094 -21.867188 18.007812 -21.757812 17.625 -21.585938 C 17.683594 -21.613281 17.742188 -21.664062 17.796875 -21.746094 C 17.828125 -21.785156 17.847656 -21.824219 17.859375 -21.863281 L 17.863281 -21.863281 C 17.890625 -22.15625 17.804688 -22.394531 17.609375 -22.578125 C 17.734375 -22.460938 17.855469 -22.378906 17.972656 -22.324219 L 17.132812 -20.4375 L 17.539062 -22.464844 C 17.613281 -22.449219 18.082031 -22.425781 18.945312 -22.390625 C 19.894531 -22.355469 21.03125 -22.339844 22.367188 -22.339844 C 23.714844 -22.339844 25.074219 -22.347656 26.441406 -22.367188 C 27.828125 -22.382812 29.003906 -22.394531 29.96875 -22.394531 L 31.621094 -22.394531 C 32.308594 -22.394531 32.890625 -22.183594 33.363281 -21.761719 C 33.910156 -21.277344 34.183594 -20.652344 34.183594 -19.886719 L 34.183594 -13.332031 C 34.183594 -12.566406 33.910156 -11.941406 33.363281 -11.457031 C 32.890625 -11.035156 32.308594 -10.824219 31.621094 -10.824219 C 30.984375 -10.824219 30.101562 -10.832031 28.96875 -10.851562 C 27.839844 -10.871094 26.671875 -10.898438 25.46875 -10.9375 C 24.285156 -10.972656 23.21875 -11 22.269531 -11.019531 C 21.328125 -11.035156 20.699219 -11.046875 20.382812 -11.046875 L 20.382812 -13.109375 L 20.589844 -11.054688 C 20.152344 -11.011719 19.632812 -10.988281 19.03125 -10.988281 C 18.707031 -10.988281 18.40625 -10.945312 18.125 -10.859375 C 18.210938 -10.886719 18.277344 -10.945312 18.320312 -11.03125 C 18.296875 -10.984375 18.28125 -10.957031 18.277344 -10.945312 C 18.277344 -10.945312 18.28125 -10.953125 18.28125 -10.960938 C 18.296875 -11.027344 18.300781 -11.105469 18.292969 -11.191406 C 18.273438 -11.410156 18.199219 -11.582031 18.070312 -11.707031 C 18.28125 -11.503906 18.503906 -11.371094 18.734375 -11.3125 L 18.234375 -9.308594 L 18.640625 -11.335938 C 18.871094 -11.289062 19.492188 -11.265625 20.492188 -11.265625 C 21.605469 -11.265625 22.875 -11.292969 24.296875 -11.347656 L 28.480469 -11.511719 C 29.8125 -11.566406 30.820312 -11.613281 31.511719 -11.648438 L 31.566406 -11.652344 L 31.621094 -11.652344 C 32.308594 -11.652344 32.890625 -11.441406 33.363281 -11.019531 C 33.910156 -10.535156 34.183594 -9.910156 34.183594 -9.144531 Z M 30.050781 -9.144531 C 30.050781 -8.671875 30.238281 -8.269531 30.621094 -7.929688 C 30.929688 -7.65625 31.261719 -7.519531 31.621094 -7.519531 L 31.621094 -9.585938 L 31.730469 -7.523438 C 31.023438 -7.484375 29.996094 -7.4375 28.644531 -7.382812 L 24.453125 -7.21875 C 22.976562 -7.160156 21.65625 -7.132812 20.492188 -7.132812 C 19.21875 -7.132812 18.328125 -7.183594 17.828125 -7.285156 L 17.78125 -7.292969 L 17.734375 -7.304688 C 16.789062 -7.542969 15.945312 -8.015625 15.203125 -8.730469 C 14.597656 -9.3125 14.257812 -10.003906 14.179688 -10.800781 C 14.113281 -11.5 14.261719 -12.191406 14.625 -12.878906 C 15.105469 -13.847656 15.871094 -14.488281 16.910156 -14.808594 C 17.585938 -15.019531 18.292969 -15.121094 19.03125 -15.121094 C 19.496094 -15.121094 19.878906 -15.136719 20.175781 -15.167969 L 20.28125 -15.175781 L 20.382812 -15.175781 C 20.726562 -15.175781 21.382812 -15.167969 22.351562 -15.148438 C 23.3125 -15.128906 24.394531 -15.101562 25.597656 -15.066406 C 26.78125 -15.027344 27.925781 -15 29.039062 -14.984375 C 30.144531 -14.964844 31.007812 -14.957031 31.621094 -14.957031 C 31.261719 -14.957031 30.929688 -14.820312 30.621094 -14.542969 C 30.238281 -14.207031 30.050781 -13.804688 30.050781 -13.332031 L 30.050781 -19.886719 C 30.050781 -19.414062 30.238281 -19.011719 30.621094 -18.671875 C 30.929688 -18.398438 31.261719 -18.261719 31.621094 -18.261719 L 29.96875 -18.261719 C 29.023438 -18.261719 27.863281 -18.253906 26.496094 -18.234375 C 25.109375 -18.214844 23.734375 -18.207031 22.367188 -18.207031 C 20.980469 -18.207031 19.789062 -18.226562 18.789062 -18.261719 C 17.707031 -18.304688 17.019531 -18.351562 16.726562 -18.410156 L 16.503906 -18.457031 L 16.292969 -18.550781 C 15.75 -18.792969 15.246094 -19.128906 14.78125 -19.5625 C 14 -20.300781 13.65625 -21.21875 13.757812 -22.320312 C 13.832031 -23 14.050781 -23.597656 14.414062 -24.113281 C 14.792969 -24.65625 15.292969 -25.066406 15.925781 -25.351562 C 16.675781 -25.691406 17.4375 -25.910156 18.199219 -26.011719 C 18.847656 -26.09375 19.726562 -26.152344 20.832031 -26.191406 C 21.902344 -26.230469 23.066406 -26.25 24.320312 -26.25 L 27.820312 -26.25 C 28.9375 -26.25 29.867188 -26.238281 30.597656 -26.222656 L 31.671875 -26.195312 L 31.621094 -24.128906 L 31.621094 -26.195312 C 31.261719 -26.195312 30.929688 -26.058594 30.621094 -25.78125 C 30.238281 -25.445312 30.050781 -25.039062 30.050781 -24.570312 L 32.117188 -24.570312 L 30.066406 -24.300781 L 29.984375 -24.933594 C 29.925781 -25.398438 29.875 -25.917969 29.835938 -26.492188 C 29.792969 -27.074219 29.773438 -27.570312 29.773438 -27.984375 C 29.773438 -28.371094 29.785156 -28.929688 29.804688 -29.664062 C 29.820312 -30.398438 29.851562 -31.109375 29.886719 -31.789062 C 29.921875 -32.414062 29.941406 -32.796875 29.941406 -32.941406 L 29.941406 -33.070312 L 29.957031 -33.199219 C 29.988281 -33.449219 30.011719 -33.703125 30.027344 -33.953125 C 30.035156 -34.09375 30.042969 -34.207031 30.046875 -34.28125 C 30.046875 -34.316406 30.050781 -34.34375 30.050781 -34.363281 C 30.050781 -34.367188 30.050781 -34.367188 30.050781 -34.367188 C 30.050781 -34.355469 30.050781 -34.339844 30.050781 -34.320312 L 32.117188 -34.320312 L 30.15625 -33.667969 C 30.253906 -33.367188 30.441406 -33.117188 30.710938 -32.914062 C 31.003906 -32.695312 31.328125 -32.585938 31.675781 -32.585938 L 2.3125 -32.585938 C 2.710938 -32.585938 3.042969 -32.734375 3.308594 -33.03125 C 3.597656 -33.355469 3.707031 -33.722656 3.640625 -34.128906 C 4.066406 -31.269531 4.191406 -28.390625 4.019531 -25.492188 C 3.855469 -22.769531 3.753906 -20.066406 3.71875 -17.386719 L 3.636719 -9.046875 C 3.617188 -6.253906 3.550781 -3.464844 3.441406 -0.6875 L 3.441406 -0.65625 L 3.4375 -0.625 C 3.445312 -0.722656 3.433594 -0.832031 3.398438 -0.957031 C 3.335938 -1.195312 3.21875 -1.410156 3.042969 -1.597656 C 2.867188 -1.789062 2.660156 -1.921875 2.425781 -2.003906 C 2.304688 -2.046875 2.195312 -2.066406 2.09375 -2.066406 L 31.894531 -2.066406 C 31.472656 -2.066406 31.09375 -1.902344 30.765625 -1.570312 C 30.4375 -1.242188 30.269531 -0.863281 30.269531 -0.441406 L 32.335938 -0.441406 L 30.273438 -0.359375 L 30.246094 -1.078125 C 30.226562 -1.542969 30.199219 -2.113281 30.164062 -2.78125 C 30.125 -3.476562 30.097656 -4.125 30.078125 -4.726562 C 30.058594 -5.335938 30.050781 -5.800781 30.050781 -6.113281 Z M 30.050781 -9.144531 "/></g></g><g style="fill:#ffffff;fill-opacity:1;"><g transform="translate(58.624244, 103.608089)"><path style="stroke:none" d="M 31.953125 -34.65625 C 31.992188 -34.613281 32.03125 -34.554688 32.0625 -34.484375 C 32.132812 -33.753906 32.160156 -33.140625 32.140625 -32.640625 C 32.128906 -32.148438 32.101562 -31.597656 32.0625 -30.984375 C 32.03125 -30.378906 32.015625 -29.472656 32.015625 -28.265625 C 32.015625 -27.828125 32.050781 -27.179688 32.125 -26.328125 C 32.195312 -25.484375 32.25 -24.84375 32.28125 -24.40625 C 32.28125 -24.070312 32.117188 -23.90625 31.796875 -23.90625 C 30.546875 -23.945312 29.109375 -24.007812 27.484375 -24.09375 C 25.867188 -24.1875 24.351562 -24.269531 22.9375 -24.34375 C 21.53125 -24.425781 20.515625 -24.46875 19.890625 -24.46875 C 18.523438 -24.425781 17.335938 -24.3125 16.328125 -24.125 C 15.316406 -23.945312 14.8125 -23.523438 14.8125 -22.859375 C 14.8125 -22.160156 15.003906 -21.738281 15.390625 -21.59375 C 15.785156 -21.445312 16.128906 -21.359375 16.421875 -21.328125 C 17.410156 -21.140625 18.234375 -21.070312 18.890625 -21.125 C 19.554688 -21.1875 20.476562 -21.175781 21.65625 -21.09375 C 22.863281 -21.019531 24.054688 -20.851562 25.234375 -20.59375 C 26.410156 -20.34375 27.457031 -19.832031 28.375 -19.0625 C 28.882812 -18.625 29.441406 -18.0625 30.046875 -17.375 C 30.660156 -16.695312 31.175781 -15.710938 31.59375 -14.421875 C 32.019531 -13.140625 32.234375 -11.328125 32.234375 -8.984375 C 32.234375 -8.460938 32.113281 -7.707031 31.875 -6.71875 C 31.632812 -5.726562 31.164062 -4.703125 30.46875 -3.640625 C 30.132812 -3.160156 29.597656 -2.632812 28.859375 -2.0625 C 28.128906 -1.5 27.304688 -1.066406 26.390625 -0.765625 C 25.179688 -0.398438 23.96875 -0.195312 22.75 -0.15625 C 21.539062 -0.125 20.660156 -0.109375 20.109375 -0.109375 C 19.960938 -0.109375 19.421875 -0.0976562 18.484375 -0.078125 C 17.546875 -0.0664062 16.390625 -0.0625 15.015625 -0.0625 C 13.640625 -0.0625 12.195312 -0.0507812 10.6875 -0.03125 C 9.175781 -0.0078125 7.75 0 6.40625 0 C 5.070312 0 3.988281 0 3.15625 0 C 2.332031 0 1.921875 0 1.921875 0 C 1.597656 0 1.4375 -0.144531 1.4375 -0.4375 C 1.4375 -0.882812 1.441406 -1.328125 1.453125 -1.765625 C 1.472656 -2.203125 1.503906 -2.640625 1.546875 -3.078125 C 1.617188 -4.179688 1.644531 -5.289062 1.625 -6.40625 C 1.601562 -7.53125 1.59375 -8.644531 1.59375 -9.75 C 1.59375 -10.082031 1.757812 -10.226562 2.09375 -10.1875 C 2.5 -10.15625 2.984375 -10.140625 3.546875 -10.140625 C 4.117188 -10.140625 4.644531 -10.128906 5.125 -10.109375 C 5.601562 -10.085938 5.914062 -10.078125 6.0625 -10.078125 C 6.613281 -10.046875 7.363281 -10.019531 8.3125 -10 C 9.269531 -9.976562 10.28125 -9.984375 11.34375 -10.015625 C 12.414062 -10.054688 13.414062 -10.113281 14.34375 -10.1875 C 15.28125 -10.257812 16.007812 -10.367188 16.53125 -10.515625 C 17.300781 -10.703125 17.703125 -11.179688 17.734375 -11.953125 C 17.773438 -12.390625 17.566406 -12.691406 17.109375 -12.859375 C 16.648438 -13.023438 16.085938 -13.109375 15.421875 -13.109375 C 14.765625 -13.109375 14.101562 -13.082031 13.4375 -13.03125 C 12.78125 -12.976562 12.269531 -12.953125 11.90625 -12.953125 C 10.726562 -12.878906 9.578125 -12.921875 8.453125 -13.078125 C 7.335938 -13.242188 6.28125 -13.660156 5.28125 -14.328125 C 4.550781 -14.804688 3.898438 -15.421875 3.328125 -16.171875 C 2.765625 -16.921875 2.332031 -17.703125 2.03125 -18.515625 C 1.414062 -20.160156 1.1875 -21.882812 1.34375 -23.6875 C 1.507812 -25.488281 1.960938 -27.195312 2.703125 -28.8125 C 3.140625 -29.769531 3.6875 -30.632812 4.34375 -31.40625 C 5.007812 -32.175781 5.800781 -32.78125 6.71875 -33.21875 C 7.488281 -33.582031 8.285156 -33.910156 9.109375 -34.203125 C 9.941406 -34.503906 10.78125 -34.65625 11.625 -34.65625 Z M 31.953125 -34.65625 "/></g></g><g style="fill:#ffffff;fill-opacity:1;"><g transform="translate(92.392608, 103.608089)"><path style="stroke:none" d="M 18.34375 -34.65625 L 31.734375 -34.65625 C 31.878906 -34.65625 31.914062 -34.546875 31.84375 -34.328125 C 31.8125 -34.179688 31.675781 -33.679688 31.4375 -32.828125 C 31.195312 -31.984375 30.910156 -30.9375 30.578125 -29.6875 C 30.242188 -28.445312 29.882812 -27.171875 29.5 -25.859375 C 29.113281 -24.554688 28.738281 -23.394531 28.375 -22.375 C 27.820312 -20.789062 27.242188 -19.304688 26.640625 -17.921875 C 26.035156 -16.546875 25.519531 -15.410156 25.09375 -14.515625 C 24.675781 -13.617188 24.445312 -13.0625 24.40625 -12.84375 C 24.289062 -12.25 24.222656 -11.738281 24.203125 -11.3125 C 24.191406 -10.894531 24.1875 -10.394531 24.1875 -9.8125 C 24.1875 -9.113281 24.164062 -8.40625 24.125 -7.6875 C 24.09375 -6.96875 24.054688 -6.257812 24.015625 -5.5625 C 23.984375 -4.6875 23.957031 -3.796875 23.9375 -2.890625 C 23.914062 -1.992188 23.941406 -1.101562 24.015625 -0.21875 C 24.015625 -0.0703125 23.960938 0 23.859375 0 L 8.046875 0 C 7.972656 0 7.9375 -0.0703125 7.9375 -0.21875 C 7.9375 -0.289062 7.9375 -0.675781 7.9375 -1.375 C 7.9375 -2.070312 7.941406 -2.914062 7.953125 -3.90625 C 7.972656 -4.90625 7.992188 -5.914062 8.015625 -6.9375 C 8.035156 -7.96875 8.050781 -8.878906 8.0625 -9.671875 C 8.082031 -10.460938 8.09375 -10.984375 8.09375 -11.234375 C 8.09375 -11.898438 8.054688 -12.332031 7.984375 -12.53125 C 7.910156 -12.738281 7.785156 -13.132812 7.609375 -13.71875 C 7.535156 -13.976562 7.226562 -14.703125 6.6875 -15.890625 C 6.15625 -17.085938 5.5625 -18.675781 4.90625 -20.65625 C 4.5 -22.019531 4.070312 -23.4375 3.625 -24.90625 C 3.1875 -26.375 2.789062 -27.773438 2.4375 -29.109375 C 2.09375 -30.453125 1.789062 -31.601562 1.53125 -32.5625 C 1.28125 -33.519531 1.117188 -34.125 1.046875 -34.375 C 1.003906 -34.5625 1.0625 -34.65625 1.21875 -34.65625 L 14.4375 -34.65625 C 14.539062 -34.65625 14.59375 -34.582031 14.59375 -34.4375 C 14.664062 -33 14.773438 -31.5625 14.921875 -30.125 C 15.078125 -28.695312 15.242188 -27.269531 15.421875 -25.84375 C 15.492188 -25.363281 15.753906 -25.125 16.203125 -25.125 C 16.523438 -25.125 16.757812 -25.363281 16.90625 -25.84375 C 17.0625 -26.351562 17.203125 -27.046875 17.328125 -27.921875 C 17.453125 -28.804688 17.566406 -29.71875 17.671875 -30.65625 C 17.785156 -31.59375 17.890625 -32.421875 17.984375 -33.140625 C 18.078125 -33.859375 18.144531 -34.304688 18.1875 -34.484375 C 18.21875 -34.597656 18.269531 -34.65625 18.34375 -34.65625 Z M 18.34375 -34.65625 "/></g></g><g style="fill:#ffffff;fill-opacity:1;"><g transform="translate(125.444837, 103.608089)"><path style="stroke:none" d="M 32.5625 -15.75 C 32.5625 -14.875 32.550781 -13.800781 32.53125 -12.53125 C 32.507812 -11.269531 32.5 -9.945312 32.5 -8.5625 C 32.5 -7.1875 32.488281 -5.890625 32.46875 -4.671875 C 32.457031 -3.460938 32.453125 -2.445312 32.453125 -1.625 C 32.453125 -0.800781 32.46875 -0.316406 32.5 -0.171875 C 32.5 -0.0546875 32.460938 0 32.390625 0 L 18.1875 0 C 18.113281 0 18.078125 -0.0351562 18.078125 -0.109375 C 17.921875 -0.546875 17.78125 -0.984375 17.65625 -1.421875 C 17.53125 -1.867188 17.394531 -2.3125 17.25 -2.75 C 16.914062 -3.664062 16.644531 -4.738281 16.4375 -5.96875 C 16.238281 -7.207031 15.9375 -8.191406 15.53125 -8.921875 C 15.351562 -9.328125 15.085938 -9.425781 14.734375 -9.21875 C 14.390625 -9.019531 14.21875 -8.679688 14.21875 -8.203125 C 14.144531 -7.035156 14.132812 -5.695312 14.1875 -4.1875 C 14.238281 -2.675781 14.285156 -1.335938 14.328125 -0.171875 C 14.328125 -0.0546875 14.289062 0 14.21875 0 L 1.546875 -0.0625 C 1.472656 -0.0625 1.4375 -0.0976562 1.4375 -0.171875 C 1.4375 -3.210938 1.472656 -6.238281 1.546875 -9.25 C 1.617188 -12.269531 1.65625 -15.300781 1.65625 -18.34375 C 1.65625 -19.375 1.644531 -20.585938 1.625 -21.984375 C 1.601562 -23.378906 1.59375 -24.800781 1.59375 -26.25 C 1.59375 -27.695312 1.582031 -29.054688 1.5625 -30.328125 C 1.550781 -31.597656 1.535156 -32.617188 1.515625 -33.390625 C 1.492188 -34.160156 1.484375 -34.546875 1.484375 -34.546875 C 1.484375 -34.617188 1.519531 -34.65625 1.59375 -34.65625 L 15.421875 -34.65625 C 15.460938 -34.65625 15.5 -34.617188 15.53125 -34.546875 C 15.789062 -33.703125 16.03125 -32.679688 16.25 -31.484375 C 16.46875 -30.296875 16.707031 -29.101562 16.96875 -27.90625 C 17.226562 -26.707031 17.519531 -25.707031 17.84375 -24.90625 C 18 -24.425781 18.296875 -24.28125 18.734375 -24.46875 C 19.066406 -24.570312 19.25 -24.898438 19.28125 -25.453125 C 19.351562 -26.222656 19.398438 -27.160156 19.421875 -28.265625 C 19.441406 -29.367188 19.453125 -30.488281 19.453125 -31.625 C 19.453125 -32.757812 19.453125 -33.710938 19.453125 -34.484375 C 19.453125 -34.597656 19.488281 -34.65625 19.5625 -34.65625 L 32.5 -34.65625 C 32.570312 -34.65625 32.609375 -34.597656 32.609375 -34.484375 C 32.609375 -34.453125 32.609375 -34.414062 32.609375 -34.375 C 32.609375 -31.257812 32.597656 -28.148438 32.578125 -25.046875 C 32.566406 -21.941406 32.5625 -18.84375 32.5625 -15.75 Z M 32.5625 -15.75 "/></g></g><g style="fill:#ffffff;fill-opacity:1;"><g transform="translate(159.708982, 103.608089)"><path style="stroke:none" d="M 32.234375 -14.59375 C 32.234375 -14.15625 32.222656 -13.484375 32.203125 -12.578125 C 32.179688 -11.679688 32.160156 -10.691406 32.140625 -9.609375 C 32.128906 -8.523438 32.128906 -7.46875 32.140625 -6.4375 C 32.160156 -5.414062 32.207031 -4.554688 32.28125 -3.859375 L 32.28125 -0.546875 C 32.28125 -0.179688 32.097656 0 31.734375 0 L 18.84375 0 C 16.53125 0 14.640625 -0.132812 13.171875 -0.40625 C 11.703125 -0.6875 10.535156 -1.023438 9.671875 -1.421875 C 8.804688 -1.828125 8.117188 -2.179688 7.609375 -2.484375 C 6.835938 -2.960938 6.082031 -3.507812 5.34375 -4.125 C 4.613281 -4.75 4.023438 -5.410156 3.578125 -6.109375 C 2.628906 -7.648438 2.015625 -9.035156 1.734375 -10.265625 C 1.460938 -11.503906 1.328125 -12.726562 1.328125 -13.9375 L 1.328125 -20.546875 C 1.328125 -20.546875 1.328125 -20.441406 1.328125 -20.234375 C 1.328125 -20.035156 1.328125 -19.84375 1.328125 -19.65625 C 1.328125 -19.476562 1.328125 -19.441406 1.328125 -19.546875 C 1.328125 -19.660156 1.328125 -20.015625 1.328125 -20.609375 C 1.328125 -21.816406 1.414062 -22.988281 1.59375 -24.125 C 1.78125 -25.269531 2.039062 -26.316406 2.375 -27.265625 C 2.664062 -28.191406 3.125 -29.019531 3.75 -29.75 C 4.375 -30.488281 5.035156 -31.207031 5.734375 -31.90625 C 6.503906 -32.601562 7.492188 -33.148438 8.703125 -33.546875 C 9.910156 -33.953125 11.222656 -34.238281 12.640625 -34.40625 C 14.054688 -34.570312 15.441406 -34.65625 16.796875 -34.65625 L 31.40625 -34.65625 C 31.550781 -34.65625 31.734375 -34.550781 31.953125 -34.34375 C 32.171875 -34.144531 32.28125 -33.972656 32.28125 -33.828125 L 32.28125 -31.015625 C 32.25 -30.867188 32.222656 -30.722656 32.203125 -30.578125 C 32.179688 -30.429688 32.171875 -30.285156 32.171875 -30.140625 C 32.140625 -29.804688 32.128906 -29.132812 32.140625 -28.125 C 32.160156 -27.113281 32.179688 -26.03125 32.203125 -24.875 C 32.222656 -23.71875 32.238281 -22.71875 32.25 -21.875 C 32.269531 -21.03125 32.28125 -20.609375 32.28125 -20.609375 C 32.28125 -20.234375 32.117188 -20.046875 31.796875 -20.046875 C 31.460938 -20.085938 30.84375 -20.097656 29.9375 -20.078125 C 29.039062 -20.054688 27.992188 -20.035156 26.796875 -20.015625 C 25.609375 -20.003906 24.4375 -19.976562 23.28125 -19.9375 C 22.125 -19.90625 21.113281 -19.878906 20.25 -19.859375 C 19.382812 -19.835938 18.859375 -19.828125 18.671875 -19.828125 C 17.578125 -19.828125 16.789062 -19.578125 16.3125 -19.078125 C 15.832031 -18.585938 15.59375 -18.125 15.59375 -17.6875 C 15.59375 -16.769531 15.957031 -16.085938 16.6875 -15.640625 C 17.3125 -15.273438 17.816406 -15.066406 18.203125 -15.015625 C 18.585938 -14.960938 19.128906 -14.894531 19.828125 -14.8125 C 20.273438 -14.78125 20.960938 -14.765625 21.890625 -14.765625 C 22.828125 -14.765625 23.847656 -14.769531 24.953125 -14.78125 C 26.054688 -14.800781 27.113281 -14.820312 28.125 -14.84375 C 29.132812 -14.863281 29.976562 -14.882812 30.65625 -14.90625 C 31.332031 -14.925781 31.691406 -14.9375 31.734375 -14.9375 C 31.992188 -14.9375 32.160156 -14.820312 32.234375 -14.59375 Z M 32.234375 -14.59375 "/></g></g><g style="fill:#ffffff;fill-opacity:1;"><g transform="translate(193.642608, 103.608089)"><path style="stroke:none" d="M 32.125 -34.546875 C 32.125 -33.078125 32.160156 -31.597656 32.234375 -30.109375 C 32.304688 -28.617188 32.304688 -27.140625 32.234375 -25.671875 C 32.191406 -24.972656 32.148438 -24.265625 32.109375 -23.546875 C 32.078125 -22.835938 32.082031 -22.113281 32.125 -21.375 C 32.125 -21.039062 31.972656 -20.859375 31.671875 -20.828125 C 31.085938 -20.753906 30.398438 -20.722656 29.609375 -20.734375 C 28.816406 -20.753906 28.070312 -20.753906 27.375 -20.734375 C 26.675781 -20.722656 26.21875 -20.644531 26 -20.5 C 25.894531 -20.425781 25.765625 -20.304688 25.609375 -20.140625 C 25.460938 -19.972656 25.351562 -19.722656 25.28125 -19.390625 C 25.25 -19.097656 25.210938 -18.457031 25.171875 -17.46875 C 25.140625 -16.476562 25.125 -15.289062 25.125 -13.90625 C 25.125 -12.53125 25.125 -11.097656 25.125 -9.609375 C 25.125 -8.117188 25.125 -6.710938 25.125 -5.390625 C 25.125 -4.078125 25.125 -2.976562 25.125 -2.09375 C 25.125 -1.207031 25.140625 -0.710938 25.171875 -0.609375 C 25.171875 -0.203125 25.007812 0 24.6875 0 L 9.3125 0 C 9.019531 0 8.851562 -0.179688 8.8125 -0.546875 C 8.8125 -1.023438 8.820312 -1.832031 8.84375 -2.96875 C 8.863281 -4.113281 8.890625 -5.398438 8.921875 -6.828125 C 8.960938 -8.265625 9 -9.6875 9.03125 -11.09375 C 9.070312 -12.507812 9.097656 -13.734375 9.109375 -14.765625 C 9.128906 -15.796875 9.125 -16.457031 9.09375 -16.75 C 9.019531 -17.300781 8.988281 -17.851562 9 -18.40625 C 9.019531 -18.957031 8.828125 -19.429688 8.421875 -19.828125 C 8.097656 -20.128906 7.742188 -20.34375 7.359375 -20.46875 C 6.972656 -20.59375 6.578125 -20.675781 6.171875 -20.71875 C 5.835938 -20.75 5.335938 -20.765625 4.671875 -20.765625 C 4.015625 -20.765625 3.421875 -20.765625 2.890625 -20.765625 C 2.359375 -20.765625 2.09375 -20.765625 2.09375 -20.765625 C 1.757812 -20.765625 1.59375 -20.953125 1.59375 -21.328125 C 1.59375 -21.328125 1.59375 -21.570312 1.59375 -22.0625 C 1.59375 -22.5625 1.582031 -23.113281 1.5625 -23.71875 C 1.550781 -24.320312 1.523438 -24.789062 1.484375 -25.125 C 1.453125 -25.632812 1.414062 -26.375 1.375 -27.34375 C 1.34375 -28.320312 1.328125 -29.332031 1.328125 -30.375 C 1.328125 -31.425781 1.328125 -32.328125 1.328125 -33.078125 C 1.328125 -33.835938 1.328125 -34.253906 1.328125 -34.328125 C 1.328125 -34.546875 1.488281 -34.65625 1.8125 -34.65625 L 32.015625 -34.65625 C 32.015625 -34.65625 32.03125 -34.644531 32.0625 -34.625 C 32.101562 -34.601562 32.125 -34.578125 32.125 -34.546875 Z M 32.125 -34.546875 "/></g></g><g style="fill:#ffffff;fill-opacity:1;"><g transform="translate(227.410972, 103.608089)"><path style="stroke:none" d="M 1.65625 -34.65625 L 16.90625 -34.65625 C 17.3125 -34.65625 17.515625 -34.4375 17.515625 -34 C 17.410156 -32.925781 17.347656 -31.453125 17.328125 -29.578125 C 17.304688 -27.710938 17.296875 -25.6875 17.296875 -23.5 C 17.296875 -21.3125 17.3125 -19.179688 17.34375 -17.109375 C 17.382812 -15.035156 17.414062 -13.207031 17.4375 -11.625 C 17.457031 -10.039062 17.484375 -8.9375 17.515625 -8.3125 C 17.515625 -7.03125 17.550781 -5.753906 17.625 -4.484375 C 17.695312 -3.222656 17.789062 -1.945312 17.90625 -0.65625 C 17.9375 -0.21875 17.734375 0 17.296875 0 L 1.703125 0 C 1.554688 0 1.503906 -0.09375 1.546875 -0.28125 C 1.617188 -0.75 1.671875 -1.625 1.703125 -2.90625 C 1.742188 -4.195312 1.765625 -5.640625 1.765625 -7.234375 C 1.765625 -8.835938 1.753906 -10.347656 1.734375 -11.765625 C 1.710938 -13.179688 1.6875 -14.253906 1.65625 -14.984375 C 1.65625 -15.867188 1.644531 -17.023438 1.625 -18.453125 C 1.601562 -19.890625 1.582031 -21.429688 1.5625 -23.078125 C 1.550781 -24.734375 1.535156 -26.34375 1.515625 -27.90625 C 1.492188 -29.46875 1.472656 -30.832031 1.453125 -32 C 1.441406 -33.175781 1.4375 -33.988281 1.4375 -34.4375 C 1.46875 -34.46875 1.539062 -34.539062 1.65625 -34.65625 Z M 1.65625 -34.65625 "/></g></g><g style="fill:#ffffff;fill-opacity:1;"><g transform="translate(246.746526, 103.608089)"><path style="stroke:none" d="M 32.28125 -16.203125 C 32.28125 -14.984375 32.21875 -13.710938 32.09375 -12.390625 C 31.96875 -11.066406 31.789062 -10.078125 31.5625 -9.421875 C 31.5625 -9.421875 31.367188 -8.925781 30.984375 -7.9375 C 30.597656 -6.945312 30.003906 -5.953125 29.203125 -4.953125 C 28.796875 -4.515625 28.101562 -3.9375 27.125 -3.21875 C 26.15625 -2.507812 25.191406 -1.953125 24.234375 -1.546875 C 23.066406 -1.066406 21.921875 -0.71875 20.796875 -0.5 C 19.679688 -0.28125 18.898438 -0.171875 18.453125 -0.171875 C 18.117188 -0.128906 17.601562 -0.0976562 16.90625 -0.078125 C 16.207031 -0.0664062 15.507812 -0.0625 14.8125 -0.0625 C 14.125 -0.0625 13.613281 -0.0625 13.28125 -0.0625 C 13.238281 -0.0625 12.84375 -0.0507812 12.09375 -0.03125 C 11.34375 -0.0078125 10.414062 0 9.3125 0 C 8.207031 0 7.101562 0 6 0 C 4.90625 0 3.988281 0 3.25 0 C 2.519531 0 2.15625 0 2.15625 0 C 1.78125 0 1.613281 -0.179688 1.65625 -0.546875 C 1.726562 -0.835938 1.769531 -1.515625 1.78125 -2.578125 C 1.800781 -3.648438 1.8125 -4.875 1.8125 -6.25 C 1.8125 -7.625 1.8125 -8.945312 1.8125 -10.21875 C 1.8125 -11.488281 1.796875 -12.488281 1.765625 -13.21875 C 1.722656 -14.832031 1.664062 -16.445312 1.59375 -18.0625 C 1.519531 -19.6875 1.46875 -21.304688 1.4375 -22.921875 L 1.4375 -32.390625 C 1.46875 -32.984375 1.503906 -33.59375 1.546875 -34.21875 C 1.546875 -34.507812 1.691406 -34.65625 1.984375 -34.65625 L 16.96875 -34.65625 C 16.96875 -34.65625 16.789062 -34.65625 16.4375 -34.65625 C 16.09375 -34.65625 15.773438 -34.65625 15.484375 -34.65625 C 15.191406 -34.65625 15.117188 -34.65625 15.265625 -34.65625 C 15.410156 -34.65625 16 -34.65625 17.03125 -34.65625 C 19.082031 -34.65625 20.878906 -34.441406 22.421875 -34.015625 C 23.960938 -33.597656 25.5625 -32.707031 27.21875 -31.34375 C 28.394531 -30.425781 29.300781 -29.320312 29.9375 -28.03125 C 30.582031 -26.75 31.039062 -25.566406 31.3125 -24.484375 C 31.59375 -23.398438 31.769531 -22.660156 31.84375 -22.265625 C 31.914062 -21.859375 31.988281 -21.25 32.0625 -20.4375 C 32.132812 -19.632812 32.1875 -18.828125 32.21875 -18.015625 C 32.257812 -17.203125 32.28125 -16.597656 32.28125 -16.203125 Z M 17.953125 -14 C 18.035156 -14.394531 18.082031 -14.96875 18.09375 -15.71875 C 18.113281 -16.476562 18.113281 -17.253906 18.09375 -18.046875 C 18.082031 -18.835938 18.054688 -19.453125 18.015625 -19.890625 C 17.867188 -21.171875 17.609375 -22.003906 17.234375 -22.390625 C 16.867188 -22.773438 16.523438 -22.96875 16.203125 -22.96875 C 15.867188 -22.96875 15.628906 -22.828125 15.484375 -22.546875 C 15.335938 -22.273438 15.265625 -21.703125 15.265625 -20.828125 L 15.265625 -14.046875 C 15.265625 -13.390625 15.304688 -12.8125 15.390625 -12.3125 C 15.484375 -11.8125 15.769531 -11.5625 16.25 -11.5625 C 16.769531 -11.5625 17.140625 -11.734375 17.359375 -12.078125 C 17.578125 -12.429688 17.773438 -13.070312 17.953125 -14 Z M 17.953125 -14 "/></g></g><g style="fill:#ffffff;fill-opacity:1;"><g transform="translate(280.459811, 103.608089)"><path style="stroke:none" d="M 32.125 -9.140625 C 32.125 -8.660156 32.125 -8.132812 32.125 -7.5625 C 32.125 -7 32.125 -6.515625 32.125 -6.109375 C 32.125 -5.816406 32.128906 -5.375 32.140625 -4.78125 C 32.160156 -4.195312 32.1875 -3.566406 32.21875 -2.890625 C 32.257812 -2.210938 32.289062 -1.632812 32.3125 -1.15625 C 32.332031 -0.675781 32.34375 -0.4375 32.34375 -0.4375 C 32.34375 -0.144531 32.195312 0 31.90625 0 L 2.09375 0 C 1.582031 0 1.34375 -0.253906 1.375 -0.765625 C 1.488281 -3.523438 1.550781 -6.289062 1.5625 -9.0625 C 1.582031 -11.832031 1.613281 -14.613281 1.65625 -17.40625 C 1.6875 -20.125 1.785156 -22.859375 1.953125 -25.609375 C 2.117188 -28.367188 2 -31.109375 1.59375 -33.828125 C 1.5625 -34.046875 1.617188 -34.238281 1.765625 -34.40625 C 1.910156 -34.570312 2.09375 -34.65625 2.3125 -34.65625 L 31.671875 -34.65625 C 31.898438 -34.65625 32.050781 -34.546875 32.125 -34.328125 C 32.125 -34.285156 32.113281 -34.117188 32.09375 -33.828125 C 32.070312 -33.535156 32.046875 -33.242188 32.015625 -32.953125 C 32.015625 -32.765625 31.992188 -32.335938 31.953125 -31.671875 C 31.921875 -31.015625 31.894531 -30.328125 31.875 -29.609375 C 31.851562 -28.890625 31.84375 -28.347656 31.84375 -27.984375 C 31.84375 -27.617188 31.859375 -27.171875 31.890625 -26.640625 C 31.929688 -26.109375 31.976562 -25.628906 32.03125 -25.203125 C 32.09375 -24.785156 32.125 -24.578125 32.125 -24.578125 C 32.125 -24.273438 31.957031 -24.125 31.625 -24.125 C 31.625 -24.125 31.265625 -24.132812 30.546875 -24.15625 C 29.828125 -24.175781 28.914062 -24.1875 27.8125 -24.1875 C 26.71875 -24.1875 25.554688 -24.1875 24.328125 -24.1875 C 23.097656 -24.1875 21.957031 -24.164062 20.90625 -24.125 C 19.863281 -24.09375 19.046875 -24.039062 18.453125 -23.96875 C 17.898438 -23.894531 17.335938 -23.726562 16.765625 -23.46875 C 16.203125 -23.207031 15.882812 -22.75 15.8125 -22.09375 C 15.769531 -21.6875 15.894531 -21.34375 16.1875 -21.0625 C 16.488281 -20.789062 16.804688 -20.582031 17.140625 -20.4375 C 17.316406 -20.40625 17.890625 -20.367188 18.859375 -20.328125 C 19.835938 -20.296875 21.003906 -20.28125 22.359375 -20.28125 C 23.722656 -20.28125 25.09375 -20.285156 26.46875 -20.296875 C 27.84375 -20.316406 29.007812 -20.328125 29.96875 -20.328125 C 30.925781 -20.328125 31.476562 -20.328125 31.625 -20.328125 C 31.957031 -20.328125 32.125 -20.179688 32.125 -19.890625 L 32.125 -15.3125 C 32.125 -14.90625 32.125 -14.554688 32.125 -14.265625 C 32.125 -13.972656 32.125 -13.660156 32.125 -13.328125 C 32.125 -13.035156 31.957031 -12.890625 31.625 -12.890625 C 31 -12.890625 30.125 -12.898438 29 -12.921875 C 27.882812 -12.941406 26.726562 -12.96875 25.53125 -13 C 24.34375 -13.039062 23.269531 -13.066406 22.3125 -13.078125 C 21.351562 -13.097656 20.710938 -13.109375 20.390625 -13.109375 C 20.015625 -13.078125 19.5625 -13.0625 19.03125 -13.0625 C 18.5 -13.0625 17.992188 -12.984375 17.515625 -12.828125 C 17.035156 -12.679688 16.6875 -12.390625 16.46875 -11.953125 C 16.101562 -11.253906 16.160156 -10.675781 16.640625 -10.21875 C 17.117188 -9.757812 17.648438 -9.457031 18.234375 -9.3125 C 18.597656 -9.238281 19.347656 -9.203125 20.484375 -9.203125 C 21.628906 -9.203125 22.925781 -9.226562 24.375 -9.28125 C 25.832031 -9.332031 27.226562 -9.382812 28.5625 -9.4375 C 29.90625 -9.5 30.925781 -9.550781 31.625 -9.59375 C 31.957031 -9.59375 32.125 -9.441406 32.125 -9.140625 Z M 32.125 -9.140625 "/></g></g></g></svg>